if (_typeface_js && _typeface_js.loadFace) _typeface_js.loadFace({"glyphs":{"¦":{"x_min":65,"x_max":121,"ha":176,"o":"m 121 460 l 65 460 l 65 964 l 121 964 l 121 460 m 121 -300 l 65 -300 l 65 203 l 121 203 l 121 -300 "},"Ő":{"x_min":52,"x_max":1051,"ha":1103,"o":"m 1051 216 q 668 -5 1051 -5 l 433 -5 q 188 34 278 -5 q 52 216 52 89 l 52 597 q 433 821 52 821 l 668 821 q 919 789 846 821 q 1051 597 1051 738 l 1051 216 m 900 220 l 900 593 q 671 698 900 698 l 433 698 q 203 593 203 698 l 203 220 q 433 119 203 119 l 672 119 q 900 220 900 119 m 391 897 q 361 884 378 884 q 324 922 324 884 q 335 950 324 938 l 508 1134 q 540 1148 522 1148 q 579 1110 579 1148 q 568 1080 579 1093 l 391 897 m 589 896 q 560 884 579 884 q 522 922 522 884 q 533 950 522 938 l 707 1134 q 739 1148 722 1148 q 777 1110 777 1148 q 766 1080 777 1093 l 589 896 "},"Ž":{"x_min":23.734375,"x_max":957.65625,"ha":981,"o":"m 957 57 q 902 -5 957 -5 l 147 -5 q 65 13 99 -5 q 23 79 23 35 q 47 128 23 108 l 814 779 q 885 809 847 809 q 912 804 900 809 q 934 792 925 800 q 950 772 944 783 q 956 748 956 761 q 925 691 956 716 l 248 119 l 902 119 q 957 57 957 119 m 416 1054 q 463 1094 416 1094 q 510 1073 487 1094 q 526 1057 517 1066 q 548 1035 536 1048 q 584 1001 559 1025 q 653 937 610 977 q 738 1021 700 986 q 805 1080 776 1057 q 839 1093 820 1093 q 889 1053 889 1093 q 878 1031 889 1042 l 698 849 q 653 830 678 830 q 608 849 628 830 l 427 1030 q 416 1054 416 1041 "},"Á":{"x_min":6.640625,"x_max":1173.171875,"ha":1211,"o":"m 1173 51 q 1152 0 1173 20 q 1099 -22 1131 -22 q 1029 18 1056 -22 l 895 213 l 260 213 l 127 18 q 80 -14 105 -14 q 32 2 55 -14 q 6 43 6 19 q 10 57 6 51 l 486 785 q 587 830 515 830 q 657 800 640 830 q 660 794 659 798 q 665 785 662 790 l 1170 71 q 1173 51 1173 66 m 807 337 l 579 674 l 349 337 l 807 337 m 731 1079 q 632 966 731 1065 q 562 897 587 921 q 533 870 538 873 q 501 860 517 860 q 456 897 456 860 q 468 923 456 911 l 657 1111 q 680 1120 666 1120 q 715 1108 699 1120 q 731 1079 731 1096 "},"Î":{"x_min":-43.625,"x_max":429.109375,"ha":397,"o":"m 259 48 q 205 -5 259 -5 q 166 -4 182 -5 q 140 -2 150 -3 q 108 48 108 8 l 108 767 q 139 817 108 807 q 163 819 147 818 q 205 821 180 821 q 259 768 259 821 l 259 48 m 429 903 q 382 864 429 864 q 335 884 358 864 q 319 900 328 891 q 296 922 309 909 q 260 956 286 932 q 192 1020 235 980 q 106 936 144 971 q 40 877 68 900 q 5 865 24 865 q -43 904 -43 865 q -32 926 -43 915 l 147 1108 q 192 1128 167 1128 q 237 1108 217 1128 l 418 927 q 429 903 429 916 "},"e":{"x_min":28,"x_max":928,"ha":956,"o":"m 928 309 q 887 250 928 250 l 176 250 l 176 245 q 284 126 176 152 q 353 118 308 121 q 468 115 398 115 q 521 48 521 115 q 468 -5 521 -5 q 350 -4 396 -5 q 281 -1 304 -3 q 107 54 163 11 q 28 199 28 116 l 28 439 q 150 606 28 552 q 371 646 233 646 l 638 646 q 825 608 751 646 q 928 465 928 561 l 928 309 m 788 374 l 788 453 q 496 527 788 527 q 261 514 325 527 q 171 448 171 497 l 171 374 l 788 374 "},"»":{"x_min":68.5,"x_max":744.015625,"ha":815,"o":"m 480 131 q 446 119 461 119 q 425 123 434 119 q 408 135 415 128 q 397 153 401 143 q 393 173 393 163 q 417 218 393 199 l 607 361 l 417 502 q 398 523 403 511 q 392 547 392 535 q 396 568 392 557 q 408 586 400 578 q 425 599 415 594 q 446 604 434 604 q 463 601 454 604 q 480 592 472 598 l 720 404 q 744 360 744 387 q 719 317 744 333 l 480 131 m 155 131 q 122 119 137 119 q 101 123 111 119 q 84 135 92 128 q 73 153 77 143 q 69 173 69 163 q 92 218 69 199 l 284 361 l 92 502 q 73 523 79 511 q 68 547 68 535 q 72 568 68 557 q 84 586 77 578 q 101 599 91 594 q 122 604 111 604 q 139 601 130 604 q 155 592 148 598 l 396 404 q 420 360 420 386 q 396 317 420 333 l 155 131 "},"ò":{"x_min":38,"x_max":925,"ha":966,"o":"m 925 196 q 815 34 925 85 q 607 -5 737 -5 l 369 -5 q 156 34 251 -5 q 38 196 38 87 l 38 436 q 155 601 38 545 q 368 645 241 645 l 607 645 q 925 437 925 645 l 925 196 m 780 196 l 780 446 q 603 524 780 524 l 370 524 q 254 507 305 524 q 181 435 181 484 l 181 196 q 255 129 181 150 q 371 115 305 115 l 604 115 q 710 131 660 115 q 780 196 780 153 m 551 712 q 505 675 551 675 q 475 685 490 675 q 374 781 460 695 q 308 847 332 823 q 282 878 285 871 q 276 895 276 887 q 292 923 276 911 q 326 935 308 935 q 349 926 340 935 l 538 738 q 551 712 551 726 "},"ţ":{"x_min":-37.390625,"x_max":544.109375,"ha":560,"o":"m 544 572 q 490 520 544 520 l 264 520 l 264 48 q 211 -5 264 -5 q 150 -1 158 -5 q 121 47 121 9 l 121 520 q 74 521 92 520 q 49 523 56 522 q 15 579 15 534 q 49 635 15 624 q 74 637 56 636 q 121 639 92 639 l 121 767 q 173 821 121 821 q 234 816 226 821 q 264 767 264 805 l 264 639 l 490 639 q 544 572 544 639 m 267 -72 q 137 -238 267 -238 l 15 -238 q -37 -175 -37 -238 q 15 -115 -37 -115 l 83 -115 q 123 -81 115 -115 q 125 -51 124 -66 q 128 -21 126 -36 q 197 11 140 11 q 267 -41 267 11 l 267 -72 "},"^":{"x_min":28.484375,"x_max":501.203125,"ha":530,"o":"m 501 768 q 454 729 501 729 q 407 749 430 729 q 391 765 400 756 q 368 787 381 774 q 333 821 358 797 q 264 885 307 845 q 179 801 217 836 q 112 742 141 765 q 78 730 96 730 q 28 769 28 730 q 39 791 28 780 l 219 973 q 264 993 239 993 q 309 973 289 993 l 490 792 q 501 768 501 781 "},"«":{"x_min":30.515625,"x_max":707.390625,"ha":781,"o":"m 295 591 q 328 604 312 604 q 348 599 339 604 q 366 586 358 594 q 377 568 373 578 q 381 547 381 557 q 358 503 381 523 l 166 360 l 358 220 q 377 198 371 211 q 382 174 382 186 q 378 153 382 164 q 366 135 373 143 q 349 122 359 127 q 328 118 339 118 q 311 120 320 118 q 295 130 302 123 l 54 317 q 30 361 30 335 q 54 405 30 388 l 295 591 m 619 591 q 652 604 636 604 q 673 599 663 604 q 690 586 682 594 q 701 568 697 578 q 706 547 706 557 q 681 503 706 522 l 491 360 l 681 220 q 701 198 695 211 q 707 174 707 186 q 702 153 707 164 q 691 135 698 143 q 673 122 683 127 q 652 118 663 118 q 635 120 644 118 q 619 130 626 123 l 379 317 q 355 361 355 335 q 379 405 355 388 l 619 591 "},"í":{"x_min":8.5,"x_max":283.171875,"ha":256,"o":"m 213 48 q 159 -5 213 -5 q 98 -1 107 -5 q 71 47 71 9 l 71 540 q 124 593 71 593 q 184 588 175 593 q 213 539 213 577 l 213 48 m 283 883 q 184 770 283 869 q 114 701 139 725 q 85 674 90 677 q 53 664 69 664 q 8 701 8 664 q 20 727 8 715 l 209 915 q 232 924 218 924 q 267 912 251 924 q 283 883 283 900 "},"ˆ":{"x_min":159.375,"x_max":632.109375,"ha":806,"o":"m 632 697 q 585 658 632 658 q 538 678 561 658 q 522 694 531 685 q 499 716 512 703 q 463 750 489 726 q 395 814 438 774 q 309 730 347 765 q 243 671 271 694 q 208 659 227 659 q 159 698 159 659 q 170 720 159 709 l 350 902 q 395 922 370 922 q 440 902 420 922 l 621 721 q 632 697 632 710 "},"µ":{"x_min":110,"x_max":940,"ha":1011,"o":"m 110 587 q 166 636 110 636 q 223 587 223 636 l 223 94 l 663 94 q 826 181 826 94 l 826 587 q 883 636 826 636 q 940 587 940 636 l 940 181 q 642 0 940 0 l 223 0 l 223 -124 q 166 -178 223 -178 q 110 -124 110 -178 l 110 587 "},"č":{"x_min":27,"x_max":958.09375,"ha":983,"o":"m 958 48 q 891 -5 958 -5 l 361 -5 q 142 24 209 -5 q 27 191 27 70 l 27 447 q 332 645 27 645 l 899 645 q 954 584 954 645 q 899 524 954 524 l 342 524 q 170 451 170 524 l 170 197 q 366 115 170 115 l 904 115 q 958 48 958 115 m 254 881 q 301 921 254 921 q 348 900 325 921 q 364 884 355 893 q 386 862 374 875 q 422 828 397 852 q 491 764 448 804 q 576 848 538 813 q 643 907 614 884 q 677 920 658 920 q 727 880 727 920 q 716 858 727 869 l 536 676 q 491 657 516 657 q 446 676 466 657 l 265 857 q 254 881 254 868 "},"’":{"x_min":16.046875,"x_max":200.53125,"ha":233,"o":"m 200 1042 q 200 1035 200 1038 q 199 1027 199 1031 l 165 830 q 129 789 160 796 q 70 787 125 787 q 16 833 16 787 q 16 840 16 837 q 17 848 16 844 l 49 1044 q 85 1086 55 1077 q 146 1089 90 1089 q 200 1042 200 1089 "},"-":{"x_min":46.125,"x_max":598.1875,"ha":645,"o":"m 598 336 q 544 283 598 283 l 99 283 q 51 295 60 283 q 46 344 46 305 q 99 398 46 398 l 544 398 q 591 385 582 398 q 598 336 598 376 "},"Q":{"x_min":47,"x_max":1070,"ha":1116,"o":"m 1070 215 q 934 32 1070 82 q 971 11 958 19 q 987 2 984 4 q 1021 -43 1021 -21 q 995 -91 1021 -73 q 941 -108 971 -108 q 898 -96 920 -108 l 729 -3 l 439 -3 q 47 215 47 -3 l 47 604 q 184 793 47 745 q 439 821 271 821 l 680 821 q 935 795 852 821 q 1070 605 1070 749 l 1070 215 m 919 210 l 919 606 q 675 698 919 698 l 440 698 q 294 689 333 698 q 198 606 198 670 l 198 211 q 288 129 198 148 q 427 121 320 121 l 687 121 q 919 210 919 121 "},"M":{"x_min":53,"x_max":1442,"ha":1496,"o":"m 1442 48 q 1409 -1 1442 9 q 1344 -5 1395 -5 q 1291 48 1291 -5 l 1291 582 l 847 34 q 751 -9 812 -9 q 655 34 690 -9 l 204 585 l 204 48 q 150 -5 204 -5 q 85 -1 98 -5 q 53 48 53 9 l 53 741 q 137 818 53 818 q 225 778 191 818 l 753 152 l 1270 779 q 1355 819 1303 819 q 1442 735 1442 819 l 1442 48 "},"œ":{"x_min":52,"x_max":1247,"ha":1301,"o":"m 1247 309 q 1206 250 1247 250 l 733 250 l 733 245 q 840 124 733 150 q 907 117 861 119 q 1025 115 953 115 q 1078 48 1078 115 q 1025 -5 1078 -5 l 960 -5 q 659 59 736 -5 q 383 -5 575 -5 q 169 34 265 -5 q 52 196 52 87 l 52 436 q 169 601 52 545 q 382 645 255 645 l 411 645 q 664 581 586 645 q 958 646 758 646 q 1144 609 1066 646 q 1247 465 1247 561 l 1247 309 m 1107 374 l 1107 454 q 924 528 1107 528 q 863 524 892 528 q 805 514 834 521 q 728 448 728 493 l 728 374 l 1107 374 m 583 197 l 583 447 q 384 525 583 525 q 268 508 319 525 q 195 436 195 484 l 195 197 q 407 115 195 115 q 513 131 463 115 q 583 197 583 153 "},"ě":{"x_min":28,"x_max":928,"ha":956,"o":"m 928 309 q 887 250 928 250 l 176 250 l 176 245 q 284 126 176 152 q 353 118 308 121 q 468 115 398 115 q 521 48 521 115 q 468 -5 521 -5 q 350 -4 396 -5 q 281 -1 304 -3 q 107 54 163 11 q 28 199 28 116 l 28 439 q 150 606 28 552 q 371 646 233 646 l 638 646 q 825 608 751 646 q 928 465 928 561 l 928 309 m 788 374 l 788 453 q 496 527 788 527 q 261 514 325 527 q 171 448 171 497 l 171 374 l 788 374 m 241 881 q 288 921 241 921 q 335 900 312 921 q 351 884 342 893 q 373 862 361 875 q 409 828 384 852 q 478 764 435 804 q 563 848 525 813 q 630 907 601 884 q 664 920 645 920 q 714 880 714 920 q 703 858 714 869 l 523 676 q 478 657 503 657 q 433 676 453 657 l 252 857 q 241 881 241 868 "},"{":{"x_min":31.71875,"x_max":396.25,"ha":427,"o":"m 396 872 q 335 817 396 817 l 264 817 l 262 481 q 229 407 262 438 q 262 333 262 378 l 264 -6 l 335 -6 q 384 -60 384 -6 q 335 -113 384 -113 q 195 -102 232 -113 q 107 -15 107 -80 l 107 335 q 69 359 107 340 q 31 405 31 380 q 69 454 31 431 q 107 481 107 477 l 107 829 q 194 918 107 897 q 335 929 231 929 q 396 872 396 929 "},"¼":{"x_min":98,"x_max":1701,"ha":1802,"o":"m 218 263 q 157 211 218 211 q 98 263 98 211 l 98 770 q 158 823 98 823 q 218 770 218 823 l 218 263 m 315 0 q 278 -17 297 -17 q 225 38 225 -17 q 241 77 225 61 l 957 817 q 1002 834 977 834 q 1061 779 1061 834 q 1041 737 1061 757 l 315 0 m 1701 41 q 1640 -11 1701 -11 q 1581 41 1581 -11 l 1581 142 l 1072 142 q 1025 156 1039 142 q 1011 206 1011 171 l 1011 548 q 1069 600 1011 600 q 1128 548 1128 600 l 1128 259 l 1581 259 l 1581 548 q 1640 600 1581 600 q 1701 548 1701 600 l 1701 41 "},"#":{"x_min":28.484375,"x_max":963.75,"ha":993,"o":"m 963 527 q 947 477 963 500 q 902 453 927 453 l 728 453 l 695 363 l 828 363 q 883 314 883 363 q 866 264 883 287 q 822 239 847 239 l 649 239 l 579 51 q 541 19 570 25 q 486 17 531 17 q 432 59 432 17 q 437 88 432 65 l 493 239 l 374 239 l 305 51 q 267 19 296 25 q 212 17 257 17 q 157 59 157 17 q 163 88 157 70 l 218 239 l 86 239 q 28 285 28 239 q 47 337 28 312 q 92 363 67 363 l 265 363 l 298 453 l 165 453 q 109 502 109 453 q 126 551 109 530 q 171 577 145 577 l 345 577 l 413 765 q 452 798 423 791 q 506 800 462 800 q 562 757 562 800 q 556 727 562 744 l 501 577 l 618 577 l 687 764 q 727 798 697 791 q 744 799 730 799 q 781 800 757 800 q 836 757 836 800 q 830 727 836 751 l 775 577 l 908 577 q 963 527 963 577 m 573 453 l 453 453 l 421 363 l 539 363 l 573 453 "},"Ê":{"x_min":36,"x_max":967.3125,"ha":1003,"o":"m 967 407 q 911 342 967 342 l 186 342 l 186 206 q 379 119 186 119 l 911 119 q 963 65 963 119 q 911 -5 963 -5 l 372 -5 q 156 37 254 -5 q 36 201 36 91 l 36 610 q 75 717 36 669 q 385 821 162 821 l 532 821 q 585 751 585 821 q 532 698 585 698 l 511 698 l 497 698 l 490 698 q 482 699 482 698 q 452 700 465 699 q 432 700 440 700 q 185 610 185 700 l 185 466 l 911 466 q 967 407 967 466 m 675 898 q 628 859 675 859 q 581 879 604 859 q 565 895 574 886 q 542 917 555 904 q 506 951 532 927 q 438 1015 481 975 q 352 931 390 966 q 286 872 314 895 q 251 860 270 860 q 202 899 202 860 q 213 921 202 910 l 393 1103 q 438 1123 413 1123 q 483 1103 463 1123 l 664 922 q 675 898 675 911 "},")":{"x_min":41.53125,"x_max":337,"ha":379,"o":"m 337 233 q 286 92 337 159 q 166 1 239 30 q 101 -5 150 -5 q 42 42 42 -5 q 79 97 42 72 l 148 146 q 186 233 186 181 l 186 583 q 75 722 186 644 q 41 776 41 746 q 93 821 41 821 q 164 817 153 821 q 337 583 337 751 l 337 233 "},"Å":{"x_min":6.640625,"x_max":1173.171875,"ha":1211,"o":"m 1173 51 q 1152 0 1173 20 q 1099 -22 1131 -22 q 1029 18 1056 -22 l 895 213 l 260 213 l 127 18 q 80 -14 105 -14 q 32 2 55 -14 q 6 43 6 19 q 10 57 6 51 l 486 785 q 587 830 515 830 q 657 800 640 830 q 660 794 659 798 q 665 785 662 790 l 1170 71 q 1173 51 1173 66 m 807 337 l 579 674 l 349 337 l 807 337 m 718 1005 q 679 918 718 951 q 587 885 642 885 q 497 918 534 885 q 458 1005 458 952 q 496 1092 458 1058 q 587 1125 533 1125 q 678 1092 640 1125 q 718 1005 718 1057 m 670 1005 q 646 1060 670 1038 q 587 1081 620 1081 q 529 1060 555 1081 q 505 1005 505 1038 q 529 950 505 971 q 587 928 555 928 q 646 950 620 928 q 670 1005 670 971 "},"¸":{"x_min":-62.390625,"x_max":242.125,"ha":269,"o":"m 242 -72 q 112 -238 242 -238 l -9 -238 q -62 -175 -62 -238 q -9 -115 -62 -115 l 58 -115 q 98 -81 90 -115 q 100 -51 99 -66 q 103 -21 101 -36 q 172 11 115 11 q 242 -41 242 11 l 242 -72 "},"a":{"x_min":48,"x_max":997,"ha":1044,"o":"m 997 190 q 703 -5 997 -5 l 353 -5 q 158 36 240 -5 q 48 183 48 89 l 48 266 q 153 418 48 367 q 349 458 231 458 l 856 458 q 662 526 844 526 q 644 525 654 526 q 619 525 633 525 q 613 524 619 524 l 607 524 l 596 524 l 579 524 q 526 591 526 524 q 579 645 526 645 q 841 621 750 645 q 997 445 997 577 l 997 190 m 857 224 q 856 247 857 233 q 856 281 856 262 q 854 314 855 300 q 854 338 854 328 l 345 338 q 252 321 300 338 q 191 266 191 300 l 191 184 q 254 129 191 148 q 349 115 295 115 l 705 115 q 815 130 785 115 q 857 224 857 151 "},"Ę":{"x_min":29,"x_max":960.3125,"ha":990,"o":"m 960 407 q 904 342 960 342 l 179 342 l 179 206 q 372 119 179 119 l 904 119 q 956 65 956 119 q 904 -5 956 -5 l 365 -5 q 149 37 247 -5 q 29 201 29 91 l 29 610 q 68 717 29 669 q 378 821 155 821 l 525 821 q 578 751 578 821 q 525 698 578 698 l 504 698 l 490 698 l 483 698 q 475 699 475 698 q 445 700 458 699 q 425 700 433 700 q 178 610 178 700 l 178 466 l 904 466 q 960 407 960 466 m 342 -41 q 411 11 342 11 q 481 -21 469 11 q 483 -51 482 -36 q 486 -81 484 -66 q 526 -115 494 -115 l 593 -115 q 646 -175 646 -115 q 593 -238 646 -238 l 471 -238 q 342 -72 342 -238 l 342 -41 "},"=":{"x_min":39.34375,"x_max":592.09375,"ha":631,"o":"m 592 460 q 538 407 592 407 l 92 407 q 45 419 54 407 q 39 469 39 428 q 92 522 39 522 l 538 522 q 585 509 576 522 q 592 460 592 500 m 592 259 q 538 206 592 206 l 92 206 q 44 219 54 206 q 39 267 39 229 q 92 321 39 321 l 538 321 q 585 308 576 321 q 592 259 592 299 "},"˚":{"x_min":288.25,"x_max":548,"ha":783,"o":"m 548 821 q 509 734 548 767 q 417 701 472 701 q 327 734 364 701 q 288 821 288 768 q 326 908 288 874 q 417 941 363 941 q 508 908 470 941 q 548 821 548 873 m 500 821 q 476 876 500 854 q 417 897 450 897 q 359 876 385 897 q 335 821 335 854 q 359 766 335 787 q 417 744 385 744 q 476 766 450 744 q 500 821 500 787 "},"ú":{"x_min":38,"x_max":947,"ha":1000,"o":"m 947 188 q 531 -7 947 -7 q 502 -6 520 -7 q 459 -6 483 -6 q 453 -5 458 -5 l 447 -5 l 436 -5 l 417 -5 l 386 -5 q 38 188 38 -5 l 38 591 q 90 645 38 645 q 152 640 143 645 q 181 591 181 629 l 181 188 q 386 115 181 115 l 600 115 q 802 186 802 115 l 802 591 q 831 640 802 629 q 893 645 839 645 q 947 591 947 645 l 947 188 m 656 897 q 557 784 656 883 q 487 715 512 739 q 458 688 463 691 q 426 678 442 678 q 381 715 381 678 q 393 741 381 729 l 582 929 q 605 938 591 938 q 640 926 624 938 q 656 897 656 914 "},"¯":{"x_min":136.328125,"x_max":688.390625,"ha":772,"o":"m 688 790 q 676 749 688 757 q 634 744 666 744 l 189 744 q 143 752 150 744 q 136 798 136 761 q 189 845 136 845 l 634 845 q 680 836 672 845 q 688 790 688 826 "},"Z":{"x_min":23.734375,"x_max":957.65625,"ha":981,"o":"m 957 57 q 902 -5 957 -5 l 147 -5 q 65 13 99 -5 q 23 79 23 35 q 47 128 23 108 l 814 779 q 885 809 847 809 q 912 804 900 809 q 934 792 925 800 q 950 772 944 783 q 956 748 956 761 q 925 691 956 716 l 248 119 l 902 119 q 957 57 957 119 "},"u":{"x_min":52,"x_max":961,"ha":1013,"o":"m 961 188 q 545 -7 961 -7 q 516 -6 534 -7 q 473 -6 497 -6 q 467 -5 472 -5 l 461 -5 l 450 -5 l 431 -5 l 400 -5 q 52 188 52 -5 l 52 591 q 104 645 52 645 q 166 640 157 645 q 195 591 195 629 l 195 188 q 400 115 195 115 l 614 115 q 816 186 816 115 l 816 591 q 845 640 816 629 q 907 645 853 645 q 961 591 961 645 l 961 188 "},"k":{"x_min":48,"x_max":808.53125,"ha":837,"o":"m 808 45 q 748 -5 808 -5 q 679 1 691 -5 l 190 245 l 190 47 q 161 -1 190 9 q 101 -5 152 -5 q 48 48 48 -5 l 48 768 q 101 821 48 821 q 162 817 150 821 q 190 768 190 807 l 190 393 l 190 393 l 672 634 q 738 639 691 639 q 798 590 798 639 q 761 539 798 557 l 323 321 l 771 96 q 808 45 808 78 "},"Ù":{"x_min":44,"x_max":1063,"ha":1114,"o":"m 1063 227 q 611 -8 1063 -8 q 577 -7 598 -8 q 529 -7 556 -7 q 482 -5 502 -6 q 448 -5 461 -5 q 66 114 130 -5 q 44 227 44 155 l 44 768 q 96 821 44 821 q 161 817 147 821 q 195 768 195 806 l 195 237 q 290 132 195 159 q 358 122 319 125 q 450 119 397 119 l 657 119 q 817 131 776 119 q 913 237 913 156 l 913 768 q 944 817 913 807 q 1010 821 957 821 q 1063 768 1063 821 l 1063 227 m 671 901 q 625 864 671 864 q 595 874 610 864 q 494 970 580 884 q 428 1036 452 1012 q 402 1067 405 1060 q 396 1084 396 1076 q 412 1112 396 1100 q 446 1124 428 1124 q 469 1115 460 1124 l 658 927 q 671 901 671 915 "},"Ů":{"x_min":55,"x_max":1074,"ha":1128,"o":"m 1074 227 q 622 -8 1074 -8 q 588 -7 609 -8 q 540 -7 567 -7 q 493 -5 513 -6 q 459 -5 472 -5 q 77 114 141 -5 q 55 227 55 155 l 55 768 q 107 821 55 821 q 172 817 158 821 q 206 768 206 806 l 206 237 q 301 132 206 159 q 369 122 330 125 q 461 119 408 119 l 668 119 q 828 131 787 119 q 924 237 924 156 l 924 768 q 955 817 924 807 q 1021 821 968 821 q 1074 768 1074 821 l 1074 227 m 694 994 q 655 907 694 940 q 563 874 618 874 q 473 907 510 874 q 434 994 434 941 q 472 1081 434 1047 q 563 1114 509 1114 q 654 1081 616 1114 q 694 994 694 1046 m 646 994 q 622 1049 646 1027 q 563 1070 596 1070 q 505 1049 531 1070 q 481 994 481 1027 q 505 939 481 960 q 563 917 531 917 q 622 939 596 917 q 646 994 646 960 "},"¢":{"x_min":39,"x_max":970.09375,"ha":1048,"o":"m 970 428 q 903 375 970 375 l 373 375 q 154 404 221 375 q 39 571 39 450 l 39 827 q 344 1025 39 1025 l 911 1025 q 966 964 966 1025 q 911 904 966 904 l 354 904 q 182 831 182 904 l 182 577 q 378 495 182 495 l 916 495 q 970 428 970 495 m 618 319 q 565 266 618 266 q 504 270 512 266 q 475 318 475 280 l 475 1039 q 527 1092 475 1092 q 589 1088 577 1092 q 618 1039 618 1078 l 618 319 "},"Ş":{"x_min":27,"x_max":965,"ha":992,"o":"m 965 199 q 943 95 965 133 q 603 -5 887 -5 l 81 -5 q 29 48 29 -5 q 37 99 29 85 q 81 119 48 119 l 603 119 q 814 196 814 119 l 814 268 q 609 350 814 344 l 359 359 q 309 361 341 359 q 230 366 277 362 q 90 419 149 375 q 27 548 27 468 l 27 610 q 188 801 27 755 q 468 821 264 821 q 521 751 521 821 q 489 701 521 711 q 425 699 485 699 q 178 611 178 699 l 178 553 q 270 483 178 500 q 321 478 287 480 q 403 477 355 477 l 605 477 q 833 439 749 477 q 965 273 965 385 l 965 199 m 648 -72 q 518 -238 648 -238 l 396 -238 q 343 -175 343 -238 q 396 -115 343 -115 l 464 -115 q 504 -81 496 -115 q 506 -51 505 -66 q 509 -21 507 -36 q 578 11 521 11 q 648 -41 648 11 l 648 -72 "},"é":{"x_min":25,"x_max":925,"ha":969,"o":"m 925 309 q 884 250 925 250 l 173 250 l 173 245 q 281 126 173 152 q 350 118 305 121 q 465 115 395 115 q 518 48 518 115 q 465 -5 518 -5 q 347 -4 393 -5 q 278 -1 301 -3 q 104 54 160 11 q 25 199 25 116 l 25 439 q 147 606 25 552 q 368 646 230 646 l 635 646 q 822 608 748 646 q 925 465 925 561 l 925 309 m 785 374 l 785 453 q 493 527 785 527 q 258 514 322 527 q 168 448 168 497 l 168 374 l 785 374 m 683 894 q 584 781 683 880 q 514 712 539 736 q 485 685 490 688 q 453 675 469 675 q 408 712 408 675 q 420 738 408 726 l 609 926 q 632 935 618 935 q 667 923 651 935 q 683 894 683 911 "},"B":{"x_min":55,"x_max":1078,"ha":1133,"o":"m 1078 214 q 965 39 1078 96 q 746 -5 878 -5 l 107 -5 q 55 48 55 -5 l 55 768 q 107 821 55 821 l 738 821 q 892 807 822 821 q 1020 740 968 789 q 1078 612 1078 685 q 1073 511 1078 542 q 1064 490 1071 504 q 1043 454 1056 476 q 1018 406 1018 411 q 1043 363 1018 403 q 1064 330 1056 344 q 1073 309 1071 317 q 1076 275 1075 298 q 1078 214 1078 252 m 931 542 q 927 611 931 565 q 731 698 920 698 l 209 698 l 209 466 l 737 466 q 931 542 931 466 m 927 256 q 740 342 927 342 l 206 342 l 206 119 l 730 119 q 926 196 913 119 q 926 215 926 201 q 927 256 927 230 "},"…":{"x_min":106,"x_max":1191,"ha":1332,"o":"m 732 63 q 652 1 732 1 q 574 63 574 1 q 652 123 574 123 q 732 63 732 123 m 1191 63 q 1111 1 1191 1 q 1033 63 1033 1 q 1111 123 1033 123 q 1191 63 1191 123 m 264 63 q 184 1 264 1 q 106 63 106 1 q 184 123 106 123 q 264 63 264 123 "},"H":{"x_min":53,"x_max":1082,"ha":1136,"o":"m 1082 48 q 1028 -5 1082 -5 q 964 -1 977 -5 q 933 48 933 7 l 933 342 l 204 342 l 204 48 q 150 -5 204 -5 q 111 -4 127 -5 q 85 -2 95 -3 q 53 48 53 8 l 53 767 q 84 817 53 807 q 108 819 92 818 q 150 821 125 821 q 204 768 204 821 l 204 466 l 933 466 l 933 768 q 964 817 933 806 q 1028 821 977 821 q 1082 768 1082 821 l 1082 48 "},"î":{"x_min":-49.625,"x_max":423.109375,"ha":362,"o":"m 253 48 q 199 -5 253 -5 q 138 -1 147 -5 q 111 47 111 9 l 111 540 q 164 593 111 593 q 224 588 215 593 q 253 539 253 577 l 253 48 m 423 705 q 376 666 423 666 q 329 686 352 666 q 313 702 322 693 q 290 724 303 711 q 254 758 280 734 q 186 822 229 782 q 100 738 138 773 q 34 679 62 702 q 0 667 18 667 q -49 706 -49 667 q -38 728 -49 717 l 141 910 q 186 930 161 930 q 231 910 211 930 l 412 729 q 423 705 423 718 "},"¥":{"x_min":44.328125,"x_max":1057.671875,"ha":1119,"o":"m 746 127 q 707 90 746 90 l 625 90 l 625 48 q 593 -1 625 9 q 528 -5 579 -5 q 475 47 475 -5 l 475 90 l 369 90 q 348 91 356 90 q 336 97 340 93 q 331 110 332 102 q 329 133 329 119 q 369 171 329 171 l 475 171 l 475 232 l 369 232 q 335 240 342 232 q 329 275 329 248 q 369 313 329 313 l 475 313 l 475 339 l 67 730 q 44 776 44 752 q 104 821 44 821 q 188 806 173 821 l 549 459 l 913 806 q 996 821 928 821 q 1057 776 1057 821 q 1033 730 1057 753 l 627 339 l 627 313 l 707 313 q 740 305 734 313 q 747 269 747 298 q 707 232 747 232 l 626 232 l 626 171 l 707 171 q 741 162 735 171 q 746 127 746 157 "},"U":{"x_min":55,"x_max":1074,"ha":1128,"o":"m 1074 227 q 622 -8 1074 -8 q 588 -7 609 -8 q 540 -7 567 -7 q 493 -5 513 -6 q 459 -5 472 -5 q 77 114 141 -5 q 55 227 55 155 l 55 768 q 107 821 55 821 q 172 817 158 821 q 206 768 206 806 l 206 237 q 301 132 206 159 q 369 122 330 125 q 461 119 408 119 l 668 119 q 828 131 787 119 q 924 237 924 156 l 924 768 q 955 817 924 807 q 1021 821 968 821 q 1074 768 1074 821 l 1074 227 "},"Ñ":{"x_min":56,"x_max":1078,"ha":1119,"o":"m 1078 83 q 995 -11 1078 -11 q 909 29 957 -11 l 207 626 l 207 48 q 174 -2 207 8 q 148 -4 164 -3 q 109 -5 132 -5 q 56 48 56 -5 l 56 737 q 133 827 56 827 q 233 783 182 827 l 927 192 l 927 767 q 959 817 927 806 q 985 819 968 818 q 1024 821 1001 821 q 1078 768 1078 821 l 1078 83 m 891 1020 q 879 979 891 987 q 837 974 869 974 l 392 974 q 346 982 353 974 q 339 1028 339 991 q 392 1075 339 1075 l 837 1075 q 883 1066 875 1075 q 891 1020 891 1056 "},"F":{"x_min":29,"x_max":957.234375,"ha":985,"o":"m 957 404 q 900 342 957 342 l 180 342 l 180 48 q 126 -5 180 -5 q 61 -1 70 -5 q 29 47 29 9 l 29 628 q 156 780 29 727 q 371 821 254 821 l 483 821 q 537 751 537 821 q 483 698 537 698 q 180 622 180 698 l 180 466 l 900 466 q 957 404 957 466 "},"ă":{"x_min":48,"x_max":997,"ha":1044,"o":"m 997 190 q 703 -5 997 -5 l 353 -5 q 158 36 240 -5 q 48 183 48 89 l 48 266 q 153 418 48 367 q 349 458 231 458 l 856 458 q 662 526 844 526 q 644 525 654 526 q 619 525 633 525 q 613 524 619 524 l 607 524 l 596 524 l 579 524 q 526 591 526 524 q 579 645 526 645 q 841 621 750 645 q 997 445 997 577 l 997 190 m 857 224 q 856 247 857 233 q 856 281 856 262 q 854 314 855 300 q 854 338 854 328 l 345 338 q 252 321 300 338 q 191 266 191 300 l 191 184 q 254 129 191 148 q 349 115 295 115 l 705 115 q 815 130 785 115 q 857 224 857 151 m 315 887 q 304 911 304 898 q 318 940 304 927 q 348 955 333 955 q 374 941 366 955 q 523 827 458 827 q 592 855 557 827 q 667 940 626 883 q 680 951 672 948 q 695 955 688 955 q 711 951 703 955 q 725 941 719 947 q 735 926 731 934 q 738 910 738 919 q 736 897 738 902 q 732 888 734 892 q 624 781 673 818 q 523 745 574 745 q 423 779 473 745 q 315 887 372 813 "},"*":{"x_min":48.828125,"x_max":691.78125,"ha":740,"o":"m 691 704 q 642 660 691 671 l 564 642 l 640 624 q 688 579 688 612 q 655 524 688 555 q 600 492 621 492 q 577 497 596 492 l 434 563 q 453 473 453 468 q 398 426 453 426 q 330 428 342 426 q 285 467 285 434 q 303 563 285 482 l 162 497 q 138 491 143 491 q 82 523 116 491 q 49 578 49 556 q 97 624 49 612 l 170 641 l 97 658 q 48 703 48 669 q 81 759 48 725 q 137 793 114 793 q 160 787 140 793 l 303 721 q 284 818 284 793 q 330 857 284 849 q 352 858 335 858 q 400 859 369 859 q 455 813 455 859 q 434 724 455 794 l 581 790 q 605 795 600 795 q 659 761 627 795 q 691 704 691 726 "},"†":{"x_min":-0.53125,"x_max":461.203125,"ha":496,"o":"m 303 532 l 286 44 q 230 -6 284 -6 q 174 44 174 -6 l 156 532 l 48 532 q 0 579 0 532 q 48 626 0 626 l 148 626 l 148 757 q 230 825 148 825 q 312 757 312 825 l 312 626 l 415 626 q 461 579 461 626 q 415 532 461 532 l 303 532 "},"°":{"x_min":50,"x_max":467,"ha":523,"o":"m 467 731 q 406 582 467 643 q 258 523 346 523 q 110 582 169 523 q 50 731 50 642 q 110 879 50 819 q 258 940 170 940 q 406 879 345 940 q 467 731 467 819 m 409 732 q 365 839 409 796 q 258 883 322 883 q 150 839 193 883 q 107 732 107 796 q 150 624 107 667 q 258 581 193 581 q 365 624 322 581 q 409 732 409 667 "},"å":{"x_min":42,"x_max":991,"ha":1030,"o":"m 991 190 q 697 -5 991 -5 l 347 -5 q 152 36 234 -5 q 42 183 42 89 l 42 266 q 147 418 42 367 q 343 458 225 458 l 850 458 q 656 526 838 526 q 638 525 648 526 q 613 525 627 525 q 607 524 613 524 l 601 524 l 590 524 l 573 524 q 520 591 520 524 q 573 645 520 645 q 835 621 744 645 q 991 445 991 577 l 991 190 m 851 224 q 850 247 851 233 q 850 281 850 262 q 848 314 849 300 q 848 338 848 328 l 339 338 q 246 321 294 338 q 185 266 185 300 l 185 184 q 248 129 185 148 q 343 115 289 115 l 699 115 q 809 130 779 115 q 851 224 851 151 m 751 807 q 712 720 751 753 q 620 687 675 687 q 530 720 567 687 q 491 807 491 754 q 529 894 491 860 q 620 927 566 927 q 711 894 673 927 q 751 807 751 859 m 703 807 q 679 862 703 840 q 620 883 653 883 q 562 862 588 883 q 538 807 538 840 q 562 752 538 773 q 620 730 588 730 q 679 752 653 730 q 703 807 703 773 "},"0":{"x_min":56,"x_max":1058,"ha":1114,"o":"m 1058 216 q 676 -5 1058 -5 l 441 -5 q 58 195 71 -5 q 56 300 56 226 q 58 448 56 349 q 60 597 60 547 q 441 821 60 821 l 676 821 q 1058 597 1058 821 l 1058 216 m 907 221 l 907 593 q 678 698 907 698 l 439 698 q 296 685 342 698 q 210 592 210 662 l 210 220 q 439 119 210 119 l 678 119 q 820 129 785 119 q 907 221 907 152 "},"”":{"x_min":18.984375,"x_max":394.71875,"ha":429,"o":"m 394 1038 q 394 1031 394 1034 q 393 1023 394 1027 l 360 826 q 324 785 354 792 q 264 783 319 783 q 210 829 210 783 q 210 836 210 833 q 211 844 210 840 l 243 1040 q 280 1082 249 1073 q 340 1085 284 1085 q 394 1038 394 1085 m 203 1038 q 203 1031 203 1034 q 202 1023 202 1027 l 168 826 q 132 785 163 792 q 73 783 128 783 q 18 829 18 783 q 19 836 18 833 q 20 844 19 840 l 52 1040 q 88 1082 58 1073 q 149 1085 93 1085 q 203 1038 203 1085 "},"ö":{"x_min":31,"x_max":918,"ha":966,"o":"m 918 196 q 808 34 918 85 q 600 -5 730 -5 l 362 -5 q 149 34 244 -5 q 31 196 31 87 l 31 436 q 148 601 31 545 q 361 645 234 645 l 600 645 q 918 437 918 645 l 918 196 m 773 196 l 773 446 q 596 524 773 524 l 363 524 q 247 507 298 524 q 174 435 174 484 l 174 196 q 248 129 174 150 q 364 115 298 115 l 597 115 q 703 131 653 115 q 773 196 773 153 m 687 864 q 681 838 687 849 q 665 819 675 827 q 642 807 655 811 q 615 803 629 803 q 565 818 587 803 q 542 864 542 835 q 565 909 542 892 q 615 926 586 926 q 642 921 629 926 q 665 909 655 917 q 681 889 675 900 q 687 864 687 878 m 451 864 q 429 819 451 836 q 379 803 408 803 q 329 818 351 803 q 306 864 306 835 q 329 909 306 892 q 379 926 350 926 q 406 921 393 926 q 429 909 419 917 q 445 889 439 900 q 451 864 451 878 "},"Õ":{"x_min":46,"x_max":1045,"ha":1089,"o":"m 1045 216 q 662 -5 1045 -5 l 427 -5 q 182 34 272 -5 q 46 216 46 89 l 46 597 q 427 821 46 821 l 662 821 q 913 789 840 821 q 1045 597 1045 738 l 1045 216 m 894 220 l 894 593 q 665 698 894 698 l 427 698 q 197 593 197 698 l 197 220 q 427 119 197 119 l 666 119 q 894 220 894 119 m 827 1019 q 815 978 827 986 q 773 973 805 973 l 328 973 q 282 981 289 973 q 275 1027 275 990 q 328 1074 275 1074 l 773 1074 q 819 1065 811 1074 q 827 1019 827 1055 "},"ć":{"x_min":27,"x_max":958.09375,"ha":983,"o":"m 958 48 q 891 -5 958 -5 l 361 -5 q 142 24 209 -5 q 27 191 27 70 l 27 447 q 332 645 27 645 l 899 645 q 954 584 954 645 q 899 524 954 524 l 342 524 q 170 451 170 524 l 170 197 q 366 115 170 115 l 904 115 q 958 48 958 115 m 629 882 q 530 769 629 868 q 460 700 485 724 q 431 673 436 676 q 399 663 415 663 q 354 700 354 663 q 366 726 354 714 l 555 914 q 578 923 564 923 q 613 911 597 923 q 629 882 629 899 "},"þ":{"x_min":45,"x_max":944,"ha":990,"o":"m 944 201 q 634 0 944 0 l 188 0 l 188 -131 q 158 -180 188 -169 q 97 -185 150 -185 q 45 -132 45 -185 l 45 768 q 98 821 45 821 q 160 817 148 821 q 189 768 189 807 l 188 626 q 372 645 251 645 l 600 645 q 944 453 944 645 l 944 201 m 800 199 l 800 451 q 720 518 800 503 q 601 525 688 525 l 378 525 q 189 457 199 525 l 189 119 l 635 119 q 800 199 800 119 "},"]":{"x_min":36.015625,"x_max":343,"ha":380,"o":"m 343 48 q 289 -5 343 -5 l 89 -5 q 36 48 36 -5 q 89 119 36 119 l 192 119 l 192 698 l 92 698 q 39 751 39 698 q 48 801 39 789 q 92 821 59 821 l 289 821 q 343 768 343 821 l 343 48 "},"8":{"x_min":52,"x_max":1082,"ha":1133,"o":"m 1082 547 q 995 414 1082 468 q 1072 325 1056 368 q 1081 206 1081 305 q 955 36 1081 92 q 729 -5 870 -5 l 408 -5 q 183 36 284 -5 q 57 206 57 92 q 65 325 57 295 q 138 414 80 379 q 62 495 79 443 q 52 609 52 526 q 426 821 52 821 l 710 821 q 1082 610 1082 821 l 1082 547 m 932 549 l 932 610 q 710 698 932 698 l 426 698 q 203 609 203 698 l 203 549 q 412 477 203 477 l 724 477 q 846 489 790 477 q 932 549 932 507 m 931 208 l 931 278 q 840 338 931 318 q 715 353 778 353 l 419 353 q 293 340 340 353 q 206 278 206 320 l 206 206 q 218 183 206 198 q 407 119 270 119 l 729 119 q 852 135 797 119 q 931 208 931 158 "},"R":{"x_min":43,"x_max":1064,"ha":1107,"o":"m 1064 512 q 945 348 1064 400 q 730 311 852 311 l 481 311 l 985 97 q 1025 44 1025 79 q 936 -6 1025 -6 q 880 -1 901 -6 l 194 293 l 194 48 q 140 -5 194 -5 q 75 -1 84 -5 q 43 47 43 9 l 43 768 q 95 821 43 821 l 702 821 q 934 784 843 821 q 1064 612 1064 732 l 1064 512 m 913 511 l 913 615 q 701 698 913 698 l 194 698 l 194 434 l 728 434 q 913 511 913 434 "},"ť":{"x_min":15.1875,"x_max":544.109375,"ha":560,"o":"m 544 572 q 490 520 544 520 l 264 520 l 264 48 q 211 -5 264 -5 q 150 -1 158 -5 q 121 47 121 9 l 121 520 q 74 521 92 520 q 49 523 56 522 q 15 579 15 534 q 49 635 15 624 q 74 637 56 636 q 121 639 92 639 l 121 767 q 173 821 121 821 q 234 816 226 821 q 264 767 264 805 l 264 639 l 490 639 q 544 572 544 639 m 518 916 q 517 908 518 912 q 516 900 517 904 l 484 704 q 447 663 479 671 q 425 660 440 661 q 387 659 410 659 q 334 705 334 659 q 334 712 334 709 q 335 720 335 716 l 366 918 q 403 960 371 950 q 425 962 410 961 q 463 963 440 963 q 518 916 518 963 "},"Ľ":{"x_min":29,"x_max":966.734375,"ha":1014,"o":"m 966 48 q 913 -5 966 -5 l 430 -5 q 172 24 265 -5 q 29 212 29 74 l 29 768 q 82 821 29 821 q 147 817 133 821 q 180 768 180 807 l 180 212 q 284 127 180 148 q 439 119 317 119 l 913 119 q 966 48 966 119 m 445 829 q 444 821 445 825 q 443 813 444 817 l 411 617 q 374 576 406 584 q 352 573 367 574 q 314 572 337 572 q 261 618 261 572 q 261 625 261 622 q 262 633 262 629 l 293 831 q 330 873 298 863 q 352 875 337 874 q 390 876 367 876 q 445 829 445 876 "},"Ż":{"x_min":23.734375,"x_max":957.65625,"ha":981,"o":"m 957 57 q 902 -5 957 -5 l 147 -5 q 65 13 99 -5 q 23 79 23 35 q 47 128 23 108 l 814 779 q 885 809 847 809 q 912 804 900 809 q 934 792 925 800 q 950 772 944 783 q 956 748 956 761 q 925 691 956 716 l 248 119 l 902 119 q 957 57 957 119 m 562 999 q 540 955 562 972 q 490 939 519 939 q 440 954 462 939 q 417 999 417 971 q 440 1044 417 1027 q 490 1061 461 1061 q 517 1056 504 1061 q 540 1044 530 1052 q 556 1024 550 1036 q 562 999 562 1013 "},"o":{"x_min":47,"x_max":934,"ha":981,"o":"m 934 196 q 824 34 934 85 q 616 -5 746 -5 l 378 -5 q 165 34 260 -5 q 47 196 47 87 l 47 436 q 164 601 47 545 q 377 645 250 645 l 616 645 q 934 437 934 645 l 934 196 m 789 196 l 789 446 q 612 524 789 524 l 379 524 q 263 507 314 524 q 190 435 190 484 l 190 196 q 264 129 190 150 q 380 115 314 115 l 613 115 q 719 131 669 115 q 789 196 789 153 "},"5":{"x_min":26,"x_max":1103,"ha":1129,"o":"m 1103 202 q 730 -5 1103 -5 l 78 -5 q 26 48 26 -5 q 78 119 26 119 l 719 119 q 952 203 952 119 l 952 323 q 880 400 952 375 q 763 418 822 418 l 78 418 q 26 470 26 418 l 26 768 q 79 821 26 821 l 572 821 q 625 768 625 821 q 617 717 625 731 q 572 698 605 698 l 175 698 l 175 541 l 760 541 q 981 495 891 541 q 1103 324 1103 437 l 1103 202 "},"õ":{"x_min":38,"x_max":925,"ha":966,"o":"m 925 196 q 815 34 925 85 q 607 -5 737 -5 l 369 -5 q 156 34 251 -5 q 38 196 38 87 l 38 436 q 155 601 38 545 q 368 645 241 645 l 607 645 q 925 437 925 645 l 925 196 m 780 196 l 780 446 q 603 524 780 524 l 370 524 q 254 507 305 524 q 181 435 181 484 l 181 196 q 255 129 181 150 q 371 115 305 115 l 604 115 q 710 131 660 115 q 780 196 780 153 m 771 820 q 759 779 771 787 q 717 774 749 774 l 272 774 q 226 782 233 774 q 219 828 219 791 q 272 875 219 875 l 717 875 q 763 866 755 875 q 771 820 771 856 "},",":{"x_min":39.34375,"x_max":223.140625,"ha":262,"o":"m 223 151 q 222 143 223 147 q 221 135 222 139 l 189 -60 q 152 -102 184 -93 q 130 -104 145 -103 q 92 -106 115 -106 q 39 -59 39 -106 q 39 -52 39 -55 q 40 -44 40 -48 l 71 153 q 108 195 76 185 q 130 197 115 196 q 168 198 145 198 q 223 151 223 198 "},"d":{"x_min":54,"x_max":966,"ha":1020,"o":"m 966 195 q 836 36 966 90 q 616 -5 745 -5 l 398 -5 q 56 178 66 -5 q 54 264 54 211 q 58 437 54 370 q 396 640 70 640 l 823 640 l 823 766 q 875 820 823 820 q 936 815 913 820 q 966 766 966 804 l 966 195 m 823 197 l 823 520 l 392 520 q 201 435 201 520 l 201 204 q 273 123 201 141 q 396 115 304 115 l 602 115 q 823 197 823 115 "},"\"":{"x_min":42.046875,"x_max":417.78125,"ha":461,"o":"m 417 764 q 417 757 417 760 q 416 749 417 753 l 383 552 q 347 511 377 518 q 287 509 342 509 q 233 555 233 509 q 233 562 233 559 q 234 570 233 566 l 266 766 q 303 808 272 799 q 363 811 307 811 q 417 764 417 811 m 226 764 q 226 757 226 760 q 225 749 225 753 l 191 552 q 155 511 186 518 q 96 509 151 509 q 42 555 42 509 q 42 562 42 559 q 43 570 42 566 l 75 766 q 111 808 81 799 q 172 811 116 811 q 226 764 226 811 "},"˙":{"x_min":234.671875,"x_max":379.8125,"ha":427,"o":"m 379 826 q 357 782 379 799 q 307 766 336 766 q 257 781 279 766 q 234 826 234 798 q 257 871 234 854 q 307 888 278 888 q 334 883 321 888 q 357 871 347 879 q 373 851 367 863 q 379 826 379 840 "},"ê":{"x_min":25,"x_max":925,"ha":969,"o":"m 925 309 q 884 250 925 250 l 173 250 l 173 245 q 281 126 173 152 q 350 118 305 121 q 465 115 395 115 q 518 48 518 115 q 465 -5 518 -5 q 347 -4 393 -5 q 278 -1 301 -3 q 104 54 160 11 q 25 199 25 116 l 25 439 q 147 606 25 552 q 368 646 230 646 l 635 646 q 822 608 748 646 q 925 465 925 561 l 925 309 m 785 374 l 785 453 q 493 527 785 527 q 258 514 322 527 q 168 448 168 497 l 168 374 l 785 374 m 722 709 q 675 670 722 670 q 628 690 651 670 q 612 706 621 697 q 589 728 602 715 q 553 762 579 738 q 485 826 528 786 q 399 742 437 777 q 333 683 361 706 q 298 671 317 671 q 249 710 249 671 q 260 732 249 721 l 440 914 q 485 934 460 934 q 530 914 510 934 l 711 733 q 722 709 722 722 "},"„":{"x_min":39.34375,"x_max":426.609375,"ha":480,"o":"m 426 151 q 426 143 426 147 q 425 135 425 139 l 392 -60 q 356 -102 387 -93 q 333 -104 348 -103 q 296 -106 318 -106 q 242 -59 242 -106 q 243 -52 242 -55 q 244 -44 243 -48 l 275 153 q 311 195 280 185 q 333 197 318 196 q 372 198 348 198 q 426 151 426 198 m 223 151 q 222 143 223 147 q 221 135 222 139 l 189 -60 q 152 -102 184 -93 q 130 -104 145 -103 q 92 -106 115 -106 q 39 -59 39 -106 q 39 -52 39 -55 q 40 -44 40 -48 l 71 153 q 108 195 76 185 q 130 197 115 196 q 168 198 145 198 q 223 151 223 198 "},"ľ":{"x_min":54,"x_max":420.140625,"ha":405,"o":"m 197 48 q 144 -5 197 -5 q 83 -1 91 -5 q 54 47 54 9 l 54 768 q 106 821 54 821 q 168 817 156 821 q 197 768 197 807 l 197 48 m 420 861 q 419 853 420 857 q 418 845 419 849 l 386 649 q 349 608 381 616 q 327 605 342 606 q 289 604 312 604 q 236 650 236 604 q 236 657 236 654 q 237 665 237 661 l 268 863 q 305 905 273 895 q 327 907 312 906 q 365 908 342 908 q 420 861 420 908 "},"Â":{"x_min":6.640625,"x_max":1173.171875,"ha":1211,"o":"m 1173 51 q 1152 0 1173 20 q 1099 -22 1131 -22 q 1029 18 1056 -22 l 895 213 l 260 213 l 127 18 q 80 -14 105 -14 q 32 2 55 -14 q 6 43 6 19 q 10 57 6 51 l 486 785 q 587 830 515 830 q 657 800 640 830 q 660 794 659 798 q 665 785 662 790 l 1170 71 q 1173 51 1173 66 m 807 337 l 579 674 l 349 337 l 807 337 m 823 896 q 776 857 823 857 q 729 877 752 857 q 713 893 722 884 q 690 915 703 902 q 654 949 680 925 q 586 1013 629 973 q 500 929 538 964 q 434 870 462 893 q 399 858 418 858 q 350 897 350 858 q 361 919 350 908 l 541 1101 q 586 1121 561 1121 q 631 1101 611 1121 l 812 920 q 823 896 823 909 "},"Ţ":{"x_min":9.765625,"x_max":932.265625,"ha":943,"o":"m 932 751 q 879 698 932 698 l 545 698 l 545 48 q 492 -5 545 -5 q 426 -1 439 -5 q 395 48 395 8 l 395 698 l 63 698 q 9 751 9 698 q 17 801 9 788 q 63 821 28 821 l 879 821 q 932 751 932 821 m 546 -72 q 416 -238 546 -238 l 294 -238 q 241 -175 241 -238 q 294 -115 241 -115 l 362 -115 q 402 -81 394 -115 q 404 -51 403 -66 q 407 -21 405 -36 q 476 11 419 11 q 546 -41 546 11 l 546 -72 "},"Í":{"x_min":4.5,"x_max":279.171875,"ha":263,"o":"m 204 48 q 150 -5 204 -5 q 111 -4 127 -5 q 85 -2 95 -3 q 53 48 53 8 l 53 767 q 84 817 53 807 q 108 819 92 818 q 150 821 125 821 q 204 768 204 821 l 204 48 m 279 1083 q 180 970 279 1069 q 110 901 135 925 q 81 874 86 877 q 49 864 65 864 q 4 901 4 864 q 16 927 4 915 l 205 1115 q 228 1124 214 1124 q 263 1112 247 1124 q 279 1083 279 1100 "},"´":{"x_min":146.5,"x_max":421.171875,"ha":608,"o":"m 421 882 q 322 769 421 868 q 252 700 277 724 q 223 673 228 676 q 191 663 207 663 q 146 700 146 663 q 158 726 146 714 l 347 914 q 370 923 356 923 q 405 911 389 923 q 421 882 421 899 "},"Ú":{"x_min":44,"x_max":1063,"ha":1114,"o":"m 1063 227 q 611 -8 1063 -8 q 577 -7 598 -8 q 529 -7 556 -7 q 482 -5 502 -6 q 448 -5 461 -5 q 66 114 130 -5 q 44 227 44 155 l 44 768 q 96 821 44 821 q 161 817 147 821 q 195 768 195 806 l 195 237 q 290 132 195 159 q 358 122 319 125 q 450 119 397 119 l 657 119 q 817 131 776 119 q 913 237 913 156 l 913 768 q 944 817 913 807 q 1010 821 957 821 q 1063 768 1063 821 l 1063 227 m 699 1079 q 600 966 699 1065 q 530 897 555 921 q 501 870 506 873 q 469 860 485 860 q 424 897 424 860 q 436 923 424 911 l 625 1111 q 648 1120 634 1120 q 683 1108 667 1120 q 699 1079 699 1096 "},"Ý":{"x_min":0.328125,"x_max":1013.03125,"ha":1009,"o":"m 1013 776 q 988 730 1013 753 l 582 339 l 581 47 q 549 -1 579 7 q 484 -5 540 -5 q 431 47 431 -5 l 431 340 l 23 730 q 0 776 0 752 q 60 821 0 821 q 144 806 129 821 l 505 459 l 868 806 q 951 821 883 821 q 1013 776 1013 821 m 686 1084 q 587 971 686 1070 q 517 902 542 926 q 488 875 493 878 q 456 865 472 865 q 411 902 411 865 q 423 928 411 916 l 612 1116 q 635 1125 621 1125 q 670 1113 654 1125 q 686 1084 686 1101 "},"ą":{"x_min":48,"x_max":997,"ha":1044,"o":"m 997 190 q 703 -5 997 -5 l 353 -5 q 158 36 240 -5 q 48 183 48 89 l 48 266 q 153 418 48 367 q 349 458 231 458 l 856 458 q 662 526 844 526 q 644 525 654 526 q 619 525 633 525 q 613 524 619 524 l 607 524 l 596 524 l 579 524 q 526 591 526 524 q 579 645 526 645 q 841 621 750 645 q 997 445 997 577 l 997 190 m 857 224 q 856 247 857 233 q 856 281 856 262 q 854 314 855 300 q 854 338 854 328 l 345 338 q 252 321 300 338 q 191 266 191 300 l 191 184 q 254 129 191 148 q 349 115 295 115 l 705 115 q 815 130 785 115 q 857 224 857 151 m 369 -41 q 438 11 369 11 q 508 -21 496 11 q 510 -51 509 -36 q 513 -81 511 -66 q 553 -115 521 -115 l 620 -115 q 673 -175 673 -115 q 620 -238 673 -238 l 498 -238 q 369 -72 369 -238 l 369 -41 "},"Ö":{"x_min":46,"x_max":1045,"ha":1089,"o":"m 1045 216 q 662 -5 1045 -5 l 427 -5 q 182 34 272 -5 q 46 216 46 89 l 46 597 q 427 821 46 821 l 662 821 q 913 789 840 821 q 1045 597 1045 738 l 1045 216 m 894 220 l 894 593 q 665 698 894 698 l 427 698 q 197 593 197 698 l 197 220 q 427 119 197 119 l 666 119 q 894 220 894 119 m 740 1066 q 734 1040 740 1051 q 718 1021 728 1029 q 695 1009 708 1013 q 668 1005 682 1005 q 618 1020 640 1005 q 595 1066 595 1037 q 618 1111 595 1094 q 668 1128 639 1128 q 695 1123 682 1128 q 718 1111 708 1119 q 734 1091 728 1102 q 740 1066 740 1080 m 504 1066 q 482 1021 504 1038 q 432 1005 461 1005 q 382 1020 404 1005 q 359 1066 359 1037 q 382 1111 359 1094 q 432 1128 403 1128 q 459 1123 446 1128 q 482 1111 472 1119 q 498 1091 492 1102 q 504 1066 504 1080 "},"z":{"x_min":27.125,"x_max":933.234375,"ha":960,"o":"m 933 55 q 877 -5 933 -5 l 125 -5 q 59 14 89 -5 q 27 72 27 37 q 65 131 27 106 l 799 605 q 852 623 827 623 q 898 604 881 623 q 916 557 916 585 q 897 519 916 531 l 280 117 l 877 114 q 933 55 933 114 "},"™":{"x_min":25.1875,"x_max":977,"ha":1025,"o":"m 977 502 q 942 458 977 468 q 936 456 938 457 q 932 456 934 456 l 913 456 q 867 502 867 456 l 867 629 l 744 480 q 689 455 724 455 q 632 480 653 455 l 507 633 l 507 502 q 460 456 507 456 q 440 456 447 456 q 429 458 432 456 q 397 502 397 468 l 397 723 l 280 723 l 280 502 q 269 467 280 478 q 234 456 258 456 q 213 456 220 456 q 203 458 207 456 q 178 473 185 463 q 171 502 171 484 l 171 723 l 71 723 q 25 768 25 723 q 31 800 25 789 q 71 821 42 821 l 455 821 q 508 796 488 821 l 689 582 l 865 797 q 889 814 876 808 q 917 821 901 821 q 977 763 977 821 l 977 502 "},"Ř":{"x_min":43,"x_max":1064,"ha":1107,"o":"m 1064 512 q 945 348 1064 400 q 730 311 852 311 l 481 311 l 985 97 q 1025 44 1025 79 q 936 -6 1025 -6 q 880 -1 901 -6 l 194 293 l 194 48 q 140 -5 194 -5 q 75 -1 84 -5 q 43 47 43 9 l 43 768 q 95 821 43 821 l 702 821 q 934 784 843 821 q 1064 612 1064 732 l 1064 512 m 913 511 l 913 615 q 701 698 913 698 l 194 698 l 194 434 l 728 434 q 913 511 913 434 m 316 1054 q 363 1094 316 1094 q 410 1073 387 1094 q 426 1057 417 1066 q 448 1035 436 1048 q 484 1001 459 1025 q 553 937 510 977 q 638 1021 600 986 q 705 1080 676 1057 q 739 1093 720 1093 q 789 1053 789 1093 q 778 1031 789 1042 l 598 849 q 553 830 578 830 q 508 849 528 830 l 327 1030 q 316 1054 316 1041 "},"ã":{"x_min":42,"x_max":991,"ha":1030,"o":"m 991 190 q 697 -5 991 -5 l 347 -5 q 152 36 234 -5 q 42 183 42 89 l 42 266 q 147 418 42 367 q 343 458 225 458 l 850 458 q 656 526 838 526 q 638 525 648 526 q 613 525 627 525 q 607 524 613 524 l 601 524 l 590 524 l 573 524 q 520 591 520 524 q 573 645 520 645 q 835 621 744 645 q 991 445 991 577 l 991 190 m 851 224 q 850 247 851 233 q 850 281 850 262 q 848 314 849 300 q 848 338 848 328 l 339 338 q 246 321 294 338 q 185 266 185 300 l 185 184 q 248 129 185 148 q 343 115 289 115 l 699 115 q 809 130 779 115 q 851 224 851 151 m 963 820 q 951 779 963 787 q 909 774 941 774 l 464 774 q 418 782 425 774 q 411 828 411 791 q 464 875 411 875 l 909 875 q 955 866 947 875 q 963 820 963 856 "},"Ň":{"x_min":56,"x_max":1078,"ha":1133,"o":"m 1078 83 q 995 -11 1078 -11 q 909 29 957 -11 l 207 626 l 207 48 q 174 -2 207 8 q 148 -4 164 -3 q 109 -5 132 -5 q 56 48 56 -5 l 56 737 q 133 827 56 827 q 233 783 182 827 l 927 192 l 927 767 q 959 817 927 806 q 985 819 968 818 q 1024 821 1001 821 q 1078 768 1078 821 l 1078 83 m 330 1054 q 377 1094 330 1094 q 424 1073 401 1094 q 440 1057 431 1066 q 462 1035 450 1048 q 498 1001 473 1025 q 567 937 524 977 q 652 1021 614 986 q 719 1080 690 1057 q 753 1093 734 1093 q 803 1053 803 1093 q 792 1031 803 1042 l 612 849 q 567 830 592 830 q 522 849 542 830 l 341 1030 q 330 1054 330 1041 "},"æ":{"x_min":59,"x_max":1374,"ha":1438,"o":"m 1374 309 q 1334 250 1374 250 l 799 250 l 799 245 q 906 124 799 149 q 971 117 926 119 q 1091 115 1017 115 q 1144 48 1144 115 q 1105 -3 1144 5 q 1032 -5 1096 -5 q 731 54 807 -5 q 497 -5 659 -5 l 364 -5 q 169 37 265 -5 q 59 183 59 88 l 59 266 q 164 418 59 367 q 359 458 242 458 l 648 458 q 454 526 636 526 q 437 525 447 526 q 413 525 426 525 q 406 524 412 524 l 400 524 l 388 524 l 371 524 q 318 591 318 524 q 387 645 318 645 q 725 578 636 645 q 898 639 791 626 q 971 644 925 642 q 1085 646 1017 646 q 1271 609 1192 646 q 1374 465 1374 561 l 1374 309 m 1234 374 l 1234 453 q 1044 527 1234 527 q 794 448 794 527 l 794 374 l 1234 374 m 650 224 q 649 247 650 233 q 649 281 649 262 q 647 314 648 300 q 647 338 647 328 l 355 338 q 263 321 311 338 q 202 266 202 300 l 202 184 q 265 129 202 148 q 360 115 306 115 l 498 115 q 607 129 580 115 q 650 224 650 152 "},"É":{"x_min":36,"x_max":967.3125,"ha":1003,"o":"m 967 407 q 911 342 967 342 l 186 342 l 186 206 q 379 119 186 119 l 911 119 q 963 65 963 119 q 911 -5 963 -5 l 372 -5 q 156 37 254 -5 q 36 201 36 91 l 36 610 q 75 717 36 669 q 385 821 162 821 l 532 821 q 585 751 585 821 q 532 698 585 698 l 511 698 l 497 698 l 490 698 q 482 699 482 698 q 452 700 465 699 q 432 700 440 700 q 185 610 185 700 l 185 466 l 911 466 q 967 407 967 466 m 732 1083 q 633 970 732 1069 q 563 901 588 925 q 534 874 539 877 q 502 864 518 864 q 457 901 457 864 q 469 927 457 915 l 658 1115 q 681 1124 667 1124 q 716 1112 700 1124 q 732 1083 732 1100 "},"~":{"x_min":86,"x_max":1878,"ha":1964,"o":"m 86 406 l 87 406 l 87 472 l 180 472 l 180 511 l 155 511 l 155 633 l 180 633 l 180 676 l 155 676 l 155 728 l 766 728 l 765 663 q 732 682 755 682 q 668 574 668 682 q 735 469 668 469 q 779 495 755 469 l 779 472 l 811 472 l 811 728 l 1331 728 l 1331 692 l 1378 692 l 1378 728 l 1878 728 l 1878 0 l 86 0 l 86 406 m 1303 472 l 1303 602 q 1237 677 1303 677 q 1194 643 1204 677 q 1155 677 1181 677 q 1118 644 1132 677 l 1118 676 l 1074 676 l 1074 511 l 1048 511 l 1048 472 l 1145 472 l 1145 511 l 1118 511 l 1118 596 q 1144 628 1118 628 q 1165 596 1165 628 l 1165 472 l 1236 472 l 1236 511 l 1210 511 l 1210 595 q 1236 626 1210 626 q 1257 595 1257 626 l 1257 472 l 1303 472 m 1369 371 l 1292 371 l 1292 109 l 1336 109 l 1336 277 l 1341 277 l 1353 109 l 1434 109 l 1434 371 l 1389 371 l 1389 201 l 1385 201 l 1369 371 m 667 371 l 667 109 l 776 109 l 791 138 l 791 224 l 780 243 l 780 247 l 791 266 l 791 343 l 776 371 l 667 371 m 1148 343 l 1148 138 l 1161 109 l 1254 109 l 1271 138 l 1271 343 l 1255 371 l 1161 371 l 1148 343 m 376 371 l 376 109 l 429 109 l 429 224 l 444 224 l 444 109 l 502 109 l 502 213 l 481 243 l 481 247 l 502 275 l 502 343 l 486 371 l 376 371 m 356 406 l 402 406 l 402 484 q 435 468 412 468 q 498 573 498 468 q 432 679 498 679 q 389 651 412 679 l 389 676 l 356 676 l 356 406 m 660 572 q 583 681 660 681 q 509 572 509 681 q 583 467 509 467 q 660 572 660 467 m 1645 289 l 1698 289 l 1698 342 l 1683 371 l 1591 371 l 1576 343 l 1576 251 l 1592 224 l 1644 211 l 1644 158 l 1630 158 l 1630 197 l 1576 197 l 1576 138 l 1591 109 l 1682 109 l 1698 137 l 1698 237 l 1679 266 l 1630 277 l 1630 323 l 1645 323 l 1645 289 m 356 109 l 356 204 l 320 371 l 262 371 l 231 204 l 232 109 l 282 109 l 282 158 l 300 158 l 300 109 l 356 109 m 644 109 l 644 204 l 610 371 l 554 371 l 522 204 l 522 109 l 575 109 l 575 158 l 591 158 l 591 109 l 644 109 m 235 406 l 264 406 q 341 504 341 414 l 341 676 l 295 676 l 295 549 q 267 514 295 514 q 241 549 241 514 l 241 676 l 196 676 l 196 557 q 260 469 196 469 q 295 480 279 469 q 256 448 295 448 l 236 448 l 235 406 m 942 221 l 978 221 l 978 266 l 942 266 l 943 315 l 978 315 l 978 371 l 889 371 l 889 109 l 978 109 l 978 167 l 942 167 l 942 221 m 1092 216 l 1125 216 l 1125 262 l 1092 262 l 1092 315 l 1125 315 l 1125 371 l 1038 371 l 1038 109 l 1092 109 l 1092 216 m 1478 315 l 1478 109 l 1532 109 l 1532 315 l 1561 315 l 1561 371 l 1448 371 l 1448 315 l 1478 315 m 952 676 l 930 676 l 930 644 q 885 681 915 681 q 825 620 825 681 q 855 570 825 582 q 824 524 824 557 q 886 467 827 467 q 934 484 917 467 q 952 540 952 502 l 931 540 q 896 514 927 514 q 869 532 869 514 q 896 557 869 557 l 910 557 l 910 583 l 896 583 q 869 606 869 583 q 896 629 869 629 q 931 601 920 629 l 952 601 l 952 676 m 1523 673 l 1500 673 l 1500 643 q 1458 681 1482 681 q 1389 572 1389 681 q 1459 468 1389 468 q 1522 547 1509 468 l 1500 547 q 1465 516 1496 516 q 1434 571 1434 516 q 1465 629 1434 629 q 1490 619 1481 629 q 1500 591 1499 610 l 1523 591 l 1523 673 m 209 167 l 179 167 l 179 371 l 126 371 l 126 109 l 209 109 l 209 167 m 869 109 l 869 371 l 814 371 l 814 109 l 869 109 m 1029 511 l 1009 511 l 1009 601 q 1028 629 1009 629 q 1045 620 1036 629 l 1060 666 q 1049 672 1055 670 q 1036 677 1044 675 q 993 644 1008 677 l 993 676 l 967 676 l 967 472 l 1029 472 l 1029 511 m 1310 676 l 1310 633 l 1331 633 l 1331 472 l 1378 472 l 1378 676 l 1310 676 m 398 606 q 427 628 406 628 q 456 574 456 628 q 425 515 456 515 q 398 537 405 515 l 398 606 m 614 571 q 583 516 614 516 q 554 571 554 516 q 583 629 554 629 q 614 571 614 629 m 769 540 q 741 521 759 521 q 712 573 712 521 q 742 633 712 633 q 769 610 760 633 l 769 540 m 87 511 l 87 633 l 114 633 l 114 511 l 87 511 m 1200 157 l 1200 323 l 1215 323 l 1215 157 l 1200 157 m 87 676 l 87 728 l 114 728 l 114 676 l 87 676 m 282 196 l 282 223 l 291 292 l 293 292 l 300 223 l 300 196 l 282 196 m 575 196 l 575 223 l 581 292 l 586 292 l 591 223 l 591 196 l 575 196 m 722 224 l 736 224 l 736 158 l 722 158 l 722 224 m 722 266 l 720 323 l 736 323 l 736 266 l 722 266 m 429 266 l 429 323 l 444 323 l 444 266 l 429 266 "},"³":{"x_min":35.5,"x_max":694,"ha":827,"o":"m 694 636 q 614 527 694 563 q 694 410 694 489 l 694 377 q 447 215 694 215 l 89 215 q 35 264 35 215 q 89 317 35 317 l 461 317 q 574 373 574 317 l 574 429 q 548 459 574 445 l 549 458 q 464 470 503 470 l 89 470 q 35 522 35 470 q 89 576 35 576 l 464 576 q 505 579 486 576 q 540 586 523 582 l 540 586 q 574 620 574 599 l 574 674 q 463 717 574 717 l 354 717 q 300 768 300 717 q 354 820 300 820 l 440 820 q 694 670 694 820 l 694 636 "},"¡":{"x_min":34.59375,"x_max":221.09375,"ha":266,"o":"m 221 509 q 190 454 221 474 q 127 436 162 436 q 65 454 90 436 q 34 509 34 474 q 127 583 34 583 q 191 565 165 583 q 221 509 221 545 m 204 -194 q 172 -244 204 -234 q 106 -248 158 -248 q 53 -194 53 -248 l 53 365 q 106 417 53 417 q 172 413 158 417 q 204 365 204 404 l 204 -194 "},"[":{"x_min":40,"x_max":346.3125,"ha":387,"o":"m 346 751 q 293 698 346 698 l 191 698 l 191 119 l 290 119 q 343 65 343 119 q 290 -5 343 -5 l 93 -5 q 40 48 40 -5 l 40 768 q 93 821 40 821 l 293 821 q 346 751 346 821 "},"%":{"x_min":27,"x_max":1296,"ha":1322,"o":"m 1296 119 q 1168 -9 1296 22 q 1084 -20 1135 -16 q 963 -24 1033 -24 q 677 115 677 -24 l 677 221 q 790 348 677 316 q 981 365 843 365 q 1176 348 1119 365 q 1296 221 1296 316 l 1296 119 m 1139 778 q 1115 731 1139 754 l 365 14 q 248 -5 343 -5 q 193 40 193 -5 q 216 87 193 64 l 970 806 q 1081 823 987 823 q 1139 778 1139 823 m 646 566 q 323 420 646 420 q 27 562 27 420 l 27 668 q 140 794 27 761 q 331 812 210 812 q 526 794 452 812 q 646 668 646 761 l 646 566 m 1116 160 l 1116 175 q 1027 239 1116 239 l 1013 239 l 1004 239 q 994 240 995 239 q 975 240 983 240 q 962 241 967 241 q 838 175 838 241 q 880 105 838 122 q 968 94 915 94 q 1116 160 1116 94 m 467 607 q 413 680 467 665 q 372 685 397 683 q 312 688 347 688 q 188 622 188 688 q 310 541 188 541 q 467 607 467 541 "},"P":{"x_min":29,"x_max":1057,"ha":1085,"o":"m 1057 508 q 933 329 1057 384 q 702 289 837 289 l 180 289 l 180 47 q 147 -1 180 9 q 82 -5 138 -5 q 29 48 29 -5 l 29 768 q 81 821 29 821 l 709 821 q 926 785 837 821 q 1057 636 1057 736 l 1057 508 m 908 513 l 908 626 q 711 698 908 698 l 180 698 l 180 413 l 711 413 q 908 513 908 413 "},"_":{"x_min":6.109375,"x_max":1013.265625,"ha":1019,"o":"m 1013 -165 q 960 -218 1013 -218 l 59 -218 q 10 -189 19 -218 q 6 -128 6 -180 q 59 -75 6 -75 l 960 -75 q 1008 -104 998 -75 q 1013 -165 1013 -112 "},"Ŕ":{"x_min":43,"x_max":1064,"ha":1107,"o":"m 1064 512 q 945 348 1064 400 q 730 311 852 311 l 481 311 l 985 97 q 1025 44 1025 79 q 936 -6 1025 -6 q 880 -1 901 -6 l 194 293 l 194 48 q 140 -5 194 -5 q 75 -1 84 -5 q 43 47 43 9 l 43 768 q 95 821 43 821 l 702 821 q 934 784 843 821 q 1064 612 1064 732 l 1064 512 m 913 511 l 913 615 q 701 698 913 698 l 194 698 l 194 434 l 728 434 q 913 511 913 434 m 690 1055 q 591 942 690 1041 q 521 873 546 897 q 492 846 497 849 q 460 836 476 836 q 415 873 415 836 q 427 899 415 887 l 616 1087 q 639 1096 625 1096 q 674 1084 658 1096 q 690 1055 690 1072 "},"ñ":{"x_min":50,"x_max":937,"ha":972,"o":"m 937 48 q 883 -5 937 -5 q 822 -1 830 -5 q 793 47 793 9 l 793 461 q 719 519 793 505 q 679 522 706 521 q 612 524 653 524 l 365 524 q 302 522 328 524 q 262 518 277 521 q 193 461 193 505 l 193 48 q 140 -5 193 -5 q 78 -1 87 -5 q 50 47 50 9 l 50 459 q 378 645 50 645 l 612 645 q 937 461 937 645 l 937 48 m 784 818 q 772 777 784 785 q 730 772 762 772 l 285 772 q 239 780 246 772 q 232 826 232 789 q 285 873 232 873 l 730 873 q 776 864 768 873 q 784 818 784 854 "},"‚":{"x_min":39.34375,"x_max":223.140625,"ha":262,"o":"m 223 151 q 222 143 223 147 q 221 135 222 139 l 189 -60 q 152 -102 184 -93 q 130 -104 145 -103 q 92 -106 115 -106 q 39 -59 39 -106 q 39 -52 39 -55 q 40 -44 40 -48 l 71 153 q 108 195 76 185 q 130 197 115 196 q 168 198 145 198 q 223 151 223 198 "},"Æ":{"x_min":17.90625,"x_max":1128.9375,"ha":1186,"o":"m 1128 407 q 1072 342 1128 342 l 741 342 l 741 206 q 934 119 741 119 l 1072 119 q 1125 65 1125 119 q 1072 -5 1125 -5 l 927 -5 q 705 36 787 -5 q 591 213 591 91 l 272 213 l 138 18 q 91 -14 116 -14 q 43 3 66 -14 q 17 44 17 20 q 21 57 17 51 l 498 785 q 599 831 527 831 q 676 759 676 831 q 940 821 767 821 l 1067 821 q 1119 751 1119 821 q 1067 698 1119 698 l 1050 698 l 1039 698 l 1033 698 q 1027 699 1028 698 q 1004 700 1014 699 q 987 700 994 700 q 740 610 740 700 l 740 466 l 1073 466 q 1128 407 1128 466 m 590 337 l 590 674 l 360 337 l 590 337 "},"ª":{"x_min":44,"x_max":640,"ha":776,"o":"m 541 618 l 213 618 q 139 579 139 618 l 139 506 q 215 470 139 470 l 466 470 q 541 532 541 470 l 541 618 m 640 520 q 454 389 640 389 l 238 389 q 44 516 44 389 l 44 569 q 235 691 44 691 l 540 691 q 465 748 540 748 l 377 748 q 336 784 336 748 q 377 820 336 820 l 454 820 q 640 685 640 820 l 640 520 "},"Œ":{"x_min":52,"x_max":1160.90625,"ha":1205,"o":"m 1160 407 q 1104 342 1160 342 l 834 342 l 834 206 q 1040 119 834 119 l 1080 119 l 1086 119 q 1094 119 1093 119 l 1104 119 q 1157 65 1157 119 q 1104 -5 1157 -5 l 1020 -5 q 755 64 849 -5 q 434 -5 660 -5 q 189 34 278 -5 q 52 216 52 89 l 52 597 q 445 821 52 821 q 762 753 679 821 q 927 814 826 801 q 998 819 953 817 q 1106 821 1042 821 q 1150 801 1138 821 q 1158 751 1158 787 q 1106 698 1158 698 q 1092 698 1093 698 l 1094 699 q 1080 700 1094 700 q 833 610 833 700 l 833 466 l 1105 466 q 1160 407 1160 466 m 678 220 l 678 593 q 434 697 678 697 q 203 593 203 697 l 203 220 q 449 119 203 119 q 678 220 678 119 "},"Ą":{"x_min":17.640625,"x_max":1184.171875,"ha":1202,"o":"m 1184 51 q 1163 0 1184 20 q 1110 -22 1142 -22 q 1040 18 1067 -22 l 906 213 l 271 213 l 138 18 q 91 -14 116 -14 q 43 2 66 -14 q 17 43 17 19 q 21 57 17 51 l 497 785 q 598 830 526 830 q 668 800 651 830 q 671 794 670 798 q 676 785 673 790 l 1181 71 q 1184 51 1184 66 m 818 337 l 590 674 l 360 337 l 818 337 m 448 -41 q 517 11 448 11 q 587 -21 575 11 q 589 -51 588 -36 q 592 -81 590 -66 q 632 -115 600 -115 l 699 -115 q 752 -175 752 -115 q 699 -238 752 -238 l 577 -238 q 448 -72 448 -238 l 448 -41 "},"T":{"x_min":9.765625,"x_max":932.265625,"ha":943,"o":"m 932 751 q 879 698 932 698 l 545 698 l 545 48 q 492 -5 545 -5 q 426 -1 439 -5 q 395 48 395 8 l 395 698 l 63 698 q 9 751 9 698 q 17 801 9 788 q 63 821 28 821 l 879 821 q 932 751 932 821 "},"š":{"x_min":29,"x_max":854,"ha":882,"o":"m 854 180 q 570 -5 854 -5 l 84 -5 q 32 48 32 -5 q 84 115 32 115 l 570 115 q 705 180 705 115 l 705 205 q 582 264 705 264 l 350 264 q 29 442 29 264 l 29 478 q 190 630 29 596 q 285 641 222 637 q 443 645 348 645 q 496 577 496 645 q 443 524 496 524 l 340 524 q 243 522 259 524 q 172 478 172 512 l 172 444 q 350 386 172 386 l 588 386 q 854 210 854 386 l 854 180 m 203 881 q 250 921 203 921 q 297 900 274 921 q 313 884 304 893 q 335 862 323 875 q 371 828 346 852 q 440 764 397 804 q 525 848 487 813 q 592 907 563 884 q 626 920 607 920 q 676 880 676 920 q 665 858 676 869 l 485 676 q 440 657 465 657 q 395 676 415 657 l 214 857 q 203 881 203 868 "},"Þ":{"x_min":28,"x_max":1057,"ha":1085,"o":"m 1057 386 q 933 207 1057 262 q 702 167 837 167 l 179 167 l 179 48 q 101 -5 178 -5 q 28 48 28 -5 l 28 767 q 59 817 28 807 q 83 819 67 818 q 125 821 99 821 q 178 768 178 821 l 178 699 l 709 699 q 925 663 836 699 q 1057 514 1057 614 l 1057 386 m 908 391 l 908 504 q 710 576 908 576 l 179 576 l 179 291 l 711 291 q 908 391 908 291 "},"j":{"x_min":10.515625,"x_max":458.484375,"ha":469,"o":"m 458 736 q 428 681 458 700 q 364 663 402 663 q 301 681 328 663 q 271 736 271 700 q 301 792 271 772 q 364 810 328 810 q 428 792 402 810 q 458 736 458 772 m 437 55 q 307 -123 437 -81 q 63 -142 250 -142 q 10 -74 10 -142 q 63 -21 10 -21 q 294 44 294 -21 l 294 595 q 347 648 294 648 q 408 643 399 648 q 437 594 437 632 l 437 55 "},"1":{"x_min":54,"x_max":205,"ha":259,"o":"m 205 48 q 173 -1 205 8 q 107 -5 159 -5 q 54 48 54 -5 l 54 768 q 107 821 54 821 q 173 817 159 821 q 205 768 205 807 l 205 48 "},"›":{"x_min":30.515625,"x_max":382.515625,"ha":444,"o":"m 118 130 q 85 118 101 118 q 64 122 73 118 q 47 135 54 127 q 35 153 40 143 q 31 174 31 164 q 56 218 31 198 l 246 361 l 56 501 q 36 523 42 511 q 30 547 30 535 q 34 568 30 557 q 46 586 39 578 q 64 599 54 594 q 85 604 73 604 q 102 601 92 604 q 118 591 111 598 l 358 404 q 382 361 382 386 q 358 316 382 333 l 118 130 "},"<":{"x_min":31.875,"x_max":687.71875,"ha":719,"o":"m 687 179 q 641 140 687 140 q 598 150 628 140 l 47 379 q 31 405 31 387 q 49 432 31 421 q 68 440 54 434 q 105 455 82 446 l 233 509 q 410 583 322 546 q 598 661 498 620 q 646 669 617 669 q 680 656 672 669 q 685 619 685 646 q 666 598 685 605 l 193 405 l 666 211 q 687 179 687 203 "},"t":{"x_min":15.1875,"x_max":544.109375,"ha":560,"o":"m 544 572 q 490 520 544 520 l 264 520 l 264 48 q 211 -5 264 -5 q 150 -1 158 -5 q 121 47 121 9 l 121 520 q 74 521 92 520 q 49 523 56 522 q 15 579 15 534 q 49 635 15 624 q 74 637 56 636 q 121 639 92 639 l 121 767 q 173 821 121 821 q 234 816 226 821 q 264 767 264 805 l 264 639 l 490 639 q 544 572 544 639 "},"ù":{"x_min":38,"x_max":947,"ha":1000,"o":"m 947 188 q 531 -7 947 -7 q 502 -6 520 -7 q 459 -6 483 -6 q 453 -5 458 -5 l 447 -5 l 436 -5 l 417 -5 l 386 -5 q 38 188 38 -5 l 38 591 q 90 645 38 645 q 152 640 143 645 q 181 591 181 629 l 181 188 q 386 115 181 115 l 600 115 q 802 186 802 115 l 802 591 q 831 640 802 629 q 893 645 839 645 q 947 591 947 645 l 947 188 m 609 712 q 563 675 609 675 q 533 685 548 675 q 432 781 518 695 q 366 847 390 823 q 340 878 343 871 q 334 895 334 887 q 350 923 334 911 q 384 935 366 935 q 407 926 398 935 l 596 738 q 609 712 609 726 "},"ï":{"x_min":-39.328125,"x_max":341.828125,"ha":294,"o":"m 230 48 q 176 -5 230 -5 q 115 -1 124 -5 q 88 47 88 9 l 88 540 q 141 593 88 593 q 201 588 192 593 q 230 539 230 577 l 230 48 m 341 868 q 335 842 341 853 q 319 823 329 831 q 296 811 309 815 q 269 807 283 807 q 219 822 241 807 q 196 868 196 839 q 219 913 196 896 q 269 930 240 930 q 296 925 283 930 q 319 913 309 921 q 335 893 329 904 q 341 868 341 882 m 105 868 q 83 823 105 840 q 33 807 62 807 q -16 822 5 807 q -39 868 -39 839 q -16 913 -39 896 q 33 930 4 930 q 60 925 47 930 q 83 913 73 921 q 99 893 93 904 q 105 868 105 882 "},"Ò":{"x_min":46,"x_max":1045,"ha":1089,"o":"m 1045 216 q 662 -5 1045 -5 l 427 -5 q 182 34 272 -5 q 46 216 46 89 l 46 597 q 427 821 46 821 l 662 821 q 913 789 840 821 q 1045 597 1045 738 l 1045 216 m 894 220 l 894 593 q 665 698 894 698 l 427 698 q 197 593 197 698 l 197 220 q 427 119 197 119 l 666 119 q 894 220 894 119 m 620 896 q 574 859 620 859 q 544 869 559 859 q 443 965 529 879 q 377 1031 401 1007 q 351 1062 354 1055 q 345 1079 345 1071 q 361 1107 345 1095 q 395 1119 377 1119 q 418 1110 409 1119 l 607 922 q 620 896 620 910 "},"Ď":{"x_min":52,"x_max":1081,"ha":1133,"o":"m 1081 218 q 963 41 1081 101 q 742 -5 872 -5 l 104 -5 q 52 48 52 -5 l 52 768 q 104 821 52 821 l 745 821 q 1081 610 1081 821 l 1081 218 m 932 218 l 932 609 q 858 681 932 658 q 741 698 806 698 l 203 698 l 203 119 l 738 119 q 859 137 808 119 q 932 218 932 163 m 329 1054 q 376 1094 329 1094 q 423 1073 400 1094 q 439 1057 430 1066 q 461 1035 449 1048 q 497 1001 472 1025 q 566 937 523 977 q 651 1021 613 986 q 718 1080 689 1057 q 752 1093 733 1093 q 802 1053 802 1093 q 791 1031 802 1042 l 611 849 q 566 830 591 830 q 521 849 541 830 l 340 1030 q 329 1054 329 1041 "},"&":{"x_min":28,"x_max":1129.8125,"ha":1158,"o":"m 1129 43 q 1068 -5 1129 -5 l 1036 -5 l 1024 -5 q 1015 -4 1016 -5 q 924 43 1000 -2 q 667 -5 832 -5 l 378 -5 q 158 36 250 -5 q 28 193 28 91 l 28 249 q 96 376 28 330 q 237 433 133 401 q 118 564 126 523 q 116 591 116 574 q 117 637 116 616 q 121 677 119 659 q 140 717 123 692 q 408 821 209 821 l 567 821 q 753 782 677 821 q 852 633 852 732 q 851 593 852 610 q 849 565 850 576 q 731 460 842 518 q 651 422 690 439 q 572 393 612 406 l 896 210 l 896 381 q 929 430 896 420 q 993 434 942 434 q 1047 381 1047 434 l 1047 214 q 1048 232 1048 222 q 1050 252 1049 241 q 1049 244 1049 251 l 1049 237 l 1049 224 l 1049 214 q 1048 204 1049 205 l 1047 214 q 1028 135 1042 162 l 1095 95 q 1129 43 1129 74 m 701 594 l 701 634 q 564 698 701 698 l 403 698 q 265 636 265 698 l 265 592 q 292 552 265 568 l 412 480 l 597 533 q 701 594 701 563 m 780 125 l 390 346 q 179 251 179 285 l 179 196 q 265 133 179 155 q 387 118 318 118 l 667 118 q 780 125 749 118 "},"˝":{"x_min":40.015625,"x_max":493.75,"ha":565,"o":"m 107 724 q 77 711 94 711 q 40 749 40 711 q 51 777 40 765 l 224 961 q 256 975 238 975 q 295 937 295 975 q 284 907 295 920 l 107 724 m 305 723 q 276 711 295 711 q 238 749 238 711 q 249 777 238 765 l 423 961 q 455 975 438 975 q 493 937 493 975 q 482 907 493 920 l 305 723 "},"I":{"x_min":53,"x_max":204,"ha":257,"o":"m 204 48 q 150 -5 204 -5 q 111 -4 127 -5 q 85 -2 95 -3 q 53 48 53 8 l 53 767 q 84 817 53 807 q 108 819 92 818 q 150 821 125 821 q 204 768 204 821 l 204 48 "},"G":{"x_min":29,"x_max":1047,"ha":1075,"o":"m 1047 205 q 935 37 1047 92 q 723 -5 848 -5 l 381 -5 q 155 33 246 -5 q 29 202 29 86 l 29 616 q 158 780 29 727 q 382 821 260 821 l 518 821 q 573 759 573 821 q 518 698 573 698 l 498 698 l 484 698 l 477 698 q 470 699 470 698 q 442 700 454 699 q 422 700 430 700 q 180 616 180 700 l 180 203 q 383 119 180 119 l 723 119 q 826 137 771 119 q 896 199 896 160 l 896 413 q 928 462 896 450 q 993 466 947 466 q 1047 413 1047 466 l 1047 205 "},"`":{"x_min":121.40625,"x_max":396.078125,"ha":518,"o":"m 396 700 q 350 663 396 663 q 320 673 335 663 q 219 769 305 683 q 153 835 177 811 q 127 866 130 859 q 121 883 121 875 q 137 911 121 899 q 171 923 153 923 q 194 914 185 923 l 383 726 q 396 700 396 714 "},"¿":{"x_min":37,"x_max":737.84375,"ha":776,"o":"m 37 72 q 162 224 37 172 q 374 263 255 263 l 534 263 q 571 307 571 263 q 570 318 571 311 q 569 333 570 326 q 568 348 568 341 q 568 359 568 355 q 595 411 568 400 q 657 416 615 416 q 714 339 714 416 q 713 326 714 334 q 712 307 713 318 q 711 289 711 297 q 711 276 711 282 q 471 142 711 142 l 451 142 l 437 142 l 430 142 q 422 143 423 142 q 395 143 407 143 q 374 144 382 144 q 257 129 312 144 q 179 68 179 109 l 179 -24 q 404 -124 179 -124 q 458 -190 458 -124 q 430 -238 458 -228 q 370 -243 421 -243 q 151 -199 237 -243 q 37 -25 37 -143 l 37 72 m 551 504 q 581 560 551 540 q 644 578 606 578 q 708 560 680 578 q 737 504 737 540 q 708 449 737 469 q 644 431 682 431 q 581 449 607 431 q 551 504 551 469 "},"ý":{"x_min":43,"x_max":937,"ha":992,"o":"m 937 5 q 776 -168 937 -127 q 514 -185 717 -185 q 469 -165 481 -185 q 460 -114 460 -152 q 514 -61 460 -61 l 532 -61 l 544 -61 l 550 -61 q 558 -62 557 -61 q 583 -63 573 -62 q 601 -63 594 -63 q 793 0 793 -63 l 365 0 q 43 193 43 0 l 43 591 q 71 640 43 629 q 133 645 80 645 q 186 591 186 645 l 186 193 q 365 119 186 119 l 793 119 l 793 591 q 846 645 793 645 q 908 640 899 645 q 937 591 937 629 l 937 5 m 692 890 q 593 777 692 876 q 523 708 548 732 q 494 681 499 684 q 462 671 478 671 q 417 708 417 671 q 429 734 417 722 l 618 922 q 641 931 627 931 q 676 919 660 931 q 692 890 692 907 "},"ź":{"x_min":27.125,"x_max":933.234375,"ha":960,"o":"m 933 55 q 877 -5 933 -5 l 125 -5 q 59 14 89 -5 q 27 72 27 37 q 65 131 27 106 l 799 605 q 852 623 827 623 q 898 604 881 623 q 916 557 916 585 q 897 519 916 531 l 280 117 l 877 114 q 933 55 933 114 m 617 882 q 518 769 617 868 q 448 700 473 724 q 419 673 424 676 q 387 663 403 663 q 342 700 342 663 q 354 726 342 714 l 543 914 q 566 923 552 923 q 601 911 585 923 q 617 882 617 899 "},"ű":{"x_min":52,"x_max":961,"ha":1013,"o":"m 961 188 q 545 -7 961 -7 q 516 -6 534 -7 q 473 -6 497 -6 q 467 -5 472 -5 l 461 -5 l 450 -5 l 431 -5 l 400 -5 q 52 188 52 -5 l 52 591 q 104 645 52 645 q 166 640 157 645 q 195 591 195 629 l 195 188 q 400 115 195 115 l 614 115 q 816 186 816 115 l 816 591 q 845 640 816 629 q 907 645 853 645 q 961 591 961 645 l 961 188 m 346 724 q 316 711 333 711 q 279 749 279 711 q 290 777 279 765 l 463 961 q 495 975 477 975 q 534 937 534 975 q 523 907 534 920 l 346 724 m 544 723 q 515 711 534 711 q 477 749 477 711 q 488 777 477 765 l 662 961 q 694 975 677 975 q 732 937 732 975 q 721 907 732 920 l 544 723 "},"ń":{"x_min":50,"x_max":937,"ha":987,"o":"m 937 48 q 883 -5 937 -5 q 822 -1 830 -5 q 793 47 793 9 l 793 461 q 719 519 793 505 q 679 522 706 521 q 612 524 653 524 l 365 524 q 302 522 328 524 q 262 518 277 521 q 193 461 193 505 l 193 48 q 140 -5 193 -5 q 78 -1 87 -5 q 50 47 50 9 l 50 459 q 378 645 50 645 l 612 645 q 937 461 937 645 l 937 48 m 631 882 q 532 769 631 868 q 462 700 487 724 q 433 673 438 676 q 401 663 417 663 q 356 700 356 663 q 368 726 356 714 l 557 914 q 580 923 566 923 q 615 911 599 923 q 631 882 631 899 "},";":{"x_min":35.265625,"x_max":244.84375,"ha":280,"o":"m 244 388 q 215 332 244 351 q 152 315 189 315 q 88 332 116 315 q 59 388 59 352 q 88 444 59 424 q 151 461 113 461 q 215 444 189 461 q 244 388 244 424 m 219 151 q 218 144 219 148 q 217 136 218 140 l 185 -60 q 148 -102 180 -93 q 127 -104 141 -103 q 88 -106 112 -106 q 35 -58 35 -106 q 35 -51 35 -55 q 36 -43 35 -48 l 67 153 q 104 195 72 185 q 126 197 111 196 q 164 198 141 198 q 219 151 219 198 "},"6":{"x_min":31,"x_max":1125,"ha":1156,"o":"m 1125 202 q 1005 35 1125 89 q 788 -5 916 -5 l 389 -5 q 94 74 172 -5 q 31 215 31 138 l 31 610 q 443 822 31 822 l 475 822 l 491 822 l 499 822 q 507 821 506 822 q 555 819 538 820 q 577 818 572 819 q 614 767 614 809 q 606 718 614 731 q 561 698 593 698 l 392 698 q 182 612 182 698 l 182 543 l 758 543 q 993 505 908 543 q 1125 331 1125 452 l 1125 202 m 976 204 l 976 328 q 892 402 976 379 q 762 419 833 419 l 182 419 l 182 216 q 265 137 182 164 q 392 119 318 119 l 788 119 q 902 135 850 119 q 976 204 976 157 "},"n":{"x_min":50,"x_max":937,"ha":987,"o":"m 937 48 q 883 -5 937 -5 q 822 -1 830 -5 q 793 47 793 9 l 793 461 q 719 519 793 505 q 679 522 706 521 q 612 524 653 524 l 365 524 q 302 522 328 524 q 262 518 277 521 q 193 461 193 505 l 193 48 q 140 -5 193 -5 q 78 -1 87 -5 q 50 47 50 9 l 50 459 q 378 645 50 645 l 612 645 q 937 461 937 645 l 937 48 "},"¤":{"x_min":72.359375,"x_max":1041.140625,"ha":1082,"o":"m 270 461 l 270 345 l 676 345 q 718 298 718 345 q 676 255 718 255 l 270 255 l 270 208 q 494 98 270 98 l 995 98 q 1041 49 1041 98 q 995 0 1041 0 l 478 0 q 149 205 149 0 l 149 255 l 115 255 q 72 300 72 255 q 115 345 72 345 l 149 345 l 149 461 l 115 461 q 72 508 72 461 q 115 551 72 551 l 149 551 l 149 626 q 470 820 149 820 l 959 820 q 1003 771 1003 820 q 959 722 1003 722 l 474 722 q 270 626 270 722 l 270 551 l 792 551 q 839 504 839 551 q 792 461 839 461 l 270 461 "},"p":{"x_min":45,"x_max":944,"ha":990,"o":"m 944 201 q 634 0 944 0 l 188 0 l 188 -131 q 158 -180 188 -169 q 97 -185 150 -185 q 45 -132 45 -185 l 45 451 q 157 615 45 570 q 372 645 222 645 l 600 645 q 944 453 944 645 l 944 201 m 800 199 l 800 451 q 720 518 800 503 q 601 525 688 525 l 378 525 q 188 448 188 525 l 188 119 l 634 119 q 800 199 800 119 "},"‡":{"x_min":8.78125,"x_max":470.53125,"ha":515,"o":"m 169 252 l 185 393 l 168 532 l 57 532 q 9 579 9 532 q 57 626 9 626 l 157 626 l 157 757 q 240 825 157 825 q 321 757 321 825 l 321 626 l 423 626 q 470 579 470 626 q 423 532 470 532 l 311 532 l 294 393 l 311 252 l 421 252 q 470 204 470 252 q 421 158 470 158 l 322 158 l 322 26 q 238 -41 322 -41 q 158 26 158 -41 l 158 158 l 54 158 q 8 205 8 158 q 54 252 8 252 l 169 252 "},"ň":{"x_min":50,"x_max":937,"ha":987,"o":"m 937 48 q 883 -5 937 -5 q 822 -1 830 -5 q 793 47 793 9 l 793 461 q 719 519 793 505 q 679 522 706 521 q 612 524 653 524 l 365 524 q 302 522 328 524 q 262 518 277 521 q 193 461 193 505 l 193 48 q 140 -5 193 -5 q 78 -1 87 -5 q 50 47 50 9 l 50 459 q 378 645 50 645 l 612 645 q 937 461 937 645 l 937 48 m 256 881 q 303 921 256 921 q 350 900 327 921 q 366 884 357 893 q 388 862 376 875 q 424 828 399 852 q 493 764 450 804 q 578 848 540 813 q 645 907 616 884 q 679 920 660 920 q 729 880 729 920 q 718 858 729 869 l 538 676 q 493 657 518 657 q 448 676 468 657 l 267 857 q 256 881 256 868 "},"ę":{"x_min":28,"x_max":928,"ha":956,"o":"m 928 309 q 887 250 928 250 l 176 250 l 176 245 q 284 126 176 152 q 353 118 308 121 q 468 115 398 115 q 521 48 521 115 q 468 -5 521 -5 q 350 -4 396 -5 q 281 -1 304 -3 q 107 54 163 11 q 28 199 28 116 l 28 439 q 150 606 28 552 q 371 646 233 646 l 638 646 q 825 608 751 646 q 928 465 928 561 l 928 309 m 788 374 l 788 453 q 496 527 788 527 q 261 514 325 527 q 171 448 171 497 l 171 374 l 788 374 m 351 -41 q 420 11 351 11 q 490 -21 478 11 q 492 -51 491 -36 q 495 -81 493 -66 q 535 -115 503 -115 l 602 -115 q 655 -175 655 -115 q 602 -238 655 -238 l 480 -238 q 351 -72 351 -238 l 351 -41 "},"S":{"x_min":27,"x_max":965,"ha":992,"o":"m 965 199 q 943 95 965 133 q 603 -5 887 -5 l 81 -5 q 29 48 29 -5 q 37 99 29 85 q 81 119 48 119 l 603 119 q 814 196 814 119 l 814 268 q 609 350 814 344 l 359 359 q 309 361 341 359 q 230 366 277 362 q 90 419 149 375 q 27 548 27 468 l 27 610 q 188 801 27 755 q 468 821 264 821 q 521 751 521 821 q 489 701 521 711 q 425 699 485 699 q 178 611 178 699 l 178 553 q 270 483 178 500 q 321 478 287 480 q 403 477 355 477 l 605 477 q 833 439 749 477 q 965 273 965 385 l 965 199 "},"/":{"x_min":14.25,"x_max":926.453125,"ha":941,"o":"m 926 776 q 903 730 926 752 l 158 10 q 74 -5 141 -5 q 14 39 14 -5 q 37 86 14 62 l 781 806 q 866 821 796 821 q 926 776 926 821 "},"y":{"x_min":54,"x_max":948,"ha":1002,"o":"m 948 5 q 787 -168 948 -127 q 525 -185 728 -185 q 480 -165 492 -185 q 471 -114 471 -152 q 525 -61 471 -61 l 543 -61 l 555 -61 l 561 -61 q 569 -62 568 -61 q 594 -63 584 -62 q 612 -63 605 -63 q 804 0 804 -63 l 376 0 q 54 193 54 0 l 54 591 q 82 640 54 629 q 144 645 91 645 q 197 591 197 645 l 197 193 q 376 119 197 119 l 804 119 l 804 591 q 857 645 804 645 q 919 640 910 645 q 948 591 948 629 l 948 5 "},"g":{"x_min":47,"x_max":945,"ha":992,"o":"m 945 16 q 806 -147 945 -95 q 570 -185 712 -185 l 510 -185 q 456 -117 456 -185 q 510 -65 456 -65 l 614 -65 q 715 -45 641 -65 q 798 0 793 -23 l 405 0 q 177 34 266 0 q 47 200 47 84 l 47 442 q 451 647 47 647 q 477 646 462 647 q 515 646 493 646 q 525 645 515 645 l 535 645 l 552 645 l 578 645 q 811 607 707 645 q 945 440 945 554 l 945 16 m 801 119 l 801 434 q 721 507 801 482 q 601 525 657 525 l 375 525 q 261 516 295 525 q 190 444 190 499 l 190 202 q 402 119 190 119 l 801 119 "},"²":{"x_min":39,"x_max":688,"ha":798,"o":"m 688 623 q 466 462 688 462 l 276 462 q 158 415 158 462 l 158 317 l 639 317 q 688 264 688 317 q 639 215 688 215 l 85 215 q 39 259 39 215 l 39 413 q 292 566 39 566 l 476 566 q 567 612 567 566 l 567 671 q 482 717 567 717 l 339 717 q 286 768 286 717 q 339 820 286 820 l 472 820 q 688 660 688 820 l 688 623 "},"ë":{"x_min":25,"x_max":925,"ha":969,"o":"m 925 309 q 884 250 925 250 l 173 250 l 173 245 q 281 126 173 152 q 350 118 305 121 q 465 115 395 115 q 518 48 518 115 q 465 -5 518 -5 q 347 -4 393 -5 q 278 -1 301 -3 q 104 54 160 11 q 25 199 25 116 l 25 439 q 147 606 25 552 q 368 646 230 646 l 635 646 q 822 608 748 646 q 925 465 925 561 l 925 309 m 785 374 l 785 453 q 493 527 785 527 q 258 514 322 527 q 168 448 168 497 l 168 374 l 785 374 m 686 865 q 680 839 686 850 q 664 820 674 828 q 641 808 654 812 q 614 804 628 804 q 564 819 586 804 q 541 865 541 836 q 564 910 541 893 q 614 927 585 927 q 641 922 628 927 q 664 910 654 918 q 680 890 674 901 q 686 865 686 879 m 450 865 q 428 820 450 837 q 378 804 407 804 q 328 819 350 804 q 305 865 305 836 q 328 910 305 893 q 378 927 349 927 q 405 922 392 927 q 428 910 418 918 q 444 890 438 901 q 450 865 450 879 "},"–":{"x_min":107.15625,"x_max":745.359375,"ha":888,"o":"m 153 297 q 107 339 107 297 q 153 385 107 385 l 703 385 q 745 341 745 385 q 703 297 745 297 l 153 297 "},"J":{"x_min":32.421875,"x_max":492,"ha":525,"o":"m 492 231 q 351 29 492 83 q 86 -5 262 -5 q 32 65 32 -5 q 86 119 32 119 q 244 129 199 119 q 341 229 341 152 l 341 768 q 393 821 341 821 q 458 817 445 821 q 492 768 492 808 l 492 231 "},"Ã":{"x_min":6.640625,"x_max":1173.171875,"ha":1211,"o":"m 1173 51 q 1152 0 1173 20 q 1099 -22 1131 -22 q 1029 18 1056 -22 l 895 213 l 260 213 l 127 18 q 80 -14 105 -14 q 32 2 55 -14 q 6 43 6 19 q 10 57 6 51 l 486 785 q 587 830 515 830 q 657 800 640 830 q 660 794 659 798 q 665 785 662 790 l 1170 71 q 1173 51 1173 66 m 807 337 l 579 674 l 349 337 l 807 337 m 849 1010 q 837 969 849 977 q 795 964 827 964 l 350 964 q 304 972 311 964 q 297 1018 297 981 q 350 1065 297 1065 l 795 1065 q 841 1056 833 1065 q 849 1010 849 1046 "},"ŕ":{"x_min":30,"x_max":452.421875,"ha":482,"o":"m 452 577 q 388 524 452 524 q 363 525 379 524 q 337 526 346 526 q 173 443 173 526 l 173 48 q 143 -1 173 9 q 80 -5 130 -5 q 30 49 30 -5 l 30 443 q 160 616 30 571 q 398 645 240 645 q 452 577 452 645 m 380 882 q 281 769 380 868 q 211 700 236 724 q 182 673 187 676 q 150 663 166 663 q 105 700 105 663 q 117 726 105 714 l 306 914 q 329 923 315 923 q 364 911 348 923 q 380 882 380 899 "},"©":{"x_min":88,"x_max":834,"ha":904,"o":"m 410 634 q 344 578 344 634 l 344 437 q 411 382 344 382 l 560 382 q 587 351 587 382 q 560 319 587 319 l 404 319 q 286 436 286 319 l 286 581 q 405 697 286 697 l 561 697 q 588 666 588 697 q 561 634 588 634 l 410 634 m 770 514 q 678 745 770 646 q 459 842 587 842 q 239 745 331 842 q 149 514 149 651 q 239 282 149 376 q 459 186 331 186 q 678 282 587 186 q 770 514 770 378 m 834 514 q 724 235 834 351 q 459 122 613 122 q 196 235 305 122 q 88 514 88 351 q 196 790 88 675 q 459 907 304 907 q 724 790 613 907 q 834 514 834 675 "},"˘":{"x_min":52.21875,"x_max":486.96875,"ha":577,"o":"m 63 887 q 52 911 52 898 q 66 940 52 927 q 96 955 81 955 q 122 941 114 955 q 271 827 206 827 q 340 855 305 827 q 415 940 374 883 q 428 951 420 948 q 443 955 436 955 q 459 951 451 955 q 473 941 467 947 q 483 926 479 934 q 486 910 486 919 q 484 897 486 902 q 480 888 482 892 q 372 781 421 818 q 271 745 322 745 q 171 779 221 745 q 63 887 120 813 "},"Ă":{"x_min":17.640625,"x_max":1184.171875,"ha":1202,"o":"m 1184 51 q 1163 0 1184 20 q 1110 -22 1142 -22 q 1040 18 1067 -22 l 906 213 l 271 213 l 138 18 q 91 -14 116 -14 q 43 2 66 -14 q 17 43 17 19 q 21 57 17 51 l 497 785 q 598 830 526 830 q 668 800 651 830 q 671 794 670 798 q 676 785 673 790 l 1181 71 q 1184 51 1184 66 m 818 337 l 590 674 l 360 337 l 818 337 m 394 1060 q 383 1084 383 1071 q 397 1113 383 1100 q 427 1128 412 1128 q 453 1114 445 1128 q 602 1000 537 1000 q 671 1028 636 1000 q 746 1113 705 1056 q 759 1124 751 1121 q 774 1128 767 1128 q 790 1124 782 1128 q 804 1114 798 1120 q 814 1099 810 1107 q 817 1083 817 1092 q 815 1070 817 1075 q 811 1061 813 1065 q 703 954 752 991 q 602 918 653 918 q 502 952 552 918 q 394 1060 451 986 "},"D":{"x_min":52,"x_max":1081,"ha":1133,"o":"m 1081 218 q 963 41 1081 101 q 742 -5 872 -5 l 104 -5 q 52 48 52 -5 l 52 768 q 104 821 52 821 l 745 821 q 1081 610 1081 821 l 1081 218 m 932 218 l 932 609 q 858 681 932 658 q 741 698 806 698 l 203 698 l 203 119 l 738 119 q 859 137 808 119 q 932 218 932 163 "},"ÿ":{"x_min":43,"x_max":937,"ha":989,"o":"m 937 5 q 776 -168 937 -127 q 514 -185 717 -185 q 469 -165 481 -185 q 460 -114 460 -152 q 514 -61 460 -61 l 532 -61 l 544 -61 l 550 -61 q 558 -62 557 -61 q 583 -63 573 -62 q 601 -63 594 -63 q 793 0 793 -63 l 365 0 q 43 193 43 0 l 43 591 q 71 640 43 629 q 133 645 80 645 q 186 591 186 645 l 186 193 q 365 119 186 119 l 793 119 l 793 591 q 846 645 793 645 q 908 640 899 645 q 937 591 937 629 l 937 5 m 705 865 q 699 839 705 850 q 683 820 693 828 q 660 808 673 812 q 633 804 647 804 q 583 819 605 804 q 560 865 560 836 q 583 910 560 893 q 633 927 604 927 q 660 922 647 927 q 683 910 673 918 q 699 890 693 901 q 705 865 705 879 m 469 865 q 447 820 469 837 q 397 804 426 804 q 347 819 369 804 q 324 865 324 836 q 347 910 324 893 q 397 927 368 927 q 424 922 411 927 q 447 910 437 918 q 463 890 457 901 q 469 865 469 879 "},"ĺ":{"x_min":-10.5,"x_max":264.171875,"ha":251,"o":"m 197 48 q 144 -5 197 -5 q 83 -1 91 -5 q 54 47 54 9 l 54 768 q 106 821 54 821 q 168 817 156 821 q 197 768 197 807 l 197 48 m 264 882 q 165 769 264 868 q 95 700 120 724 q 66 673 71 676 q 34 663 50 663 q -10 700 -10 663 q 1 726 -10 714 l 190 914 q 213 923 199 923 q 248 911 232 923 q 264 882 264 899 "},"ł":{"x_min":-89.234375,"x_max":343.484375,"ha":251,"o":"m 197 48 q 144 -5 197 -5 q 83 -1 91 -5 q 54 47 54 9 l 54 768 q 106 821 54 821 q 168 817 156 821 q 197 768 197 807 l 197 48 m 343 587 q 332 565 343 576 l -20 224 q -60 216 -29 216 q -89 237 -89 216 q -77 260 -89 248 l 274 601 q 315 608 282 608 q 343 587 343 608 "},"Ł":{"x_min":-97.578125,"x_max":966.734375,"ha":1014,"o":"m 966 48 q 913 -5 966 -5 l 430 -5 q 172 24 265 -5 q 29 212 29 74 l 29 768 q 82 821 29 821 q 147 817 133 821 q 180 768 180 807 l 180 212 q 284 127 180 148 q 439 119 317 119 l 913 119 q 966 48 966 119 m 313 579 q 303 558 313 568 l -32 233 q -70 226 -40 226 q -97 246 -97 226 q -86 268 -97 257 l 248 592 q 286 599 255 599 q 313 579 313 599 "},"$":{"x_min":30,"x_max":967,"ha":996,"o":"m 967 198 q 579 -3 967 -3 q 555 -70 579 -56 q 481 -77 534 -77 q 434 -56 445 -77 q 428 -3 428 -43 l 165 -4 q 111 -2 133 -4 q 78 1 90 -1 q 30 62 30 13 q 85 120 30 120 l 428 120 l 428 349 q 44 500 92 349 q 38 610 38 514 q 428 819 38 819 q 455 878 428 867 q 525 883 464 883 q 579 830 579 883 l 579 473 q 967 272 967 473 l 967 198 m 818 196 l 818 267 q 721 342 818 326 q 579 349 694 349 l 579 120 l 591 120 l 599 120 q 609 119 608 120 q 614 119 610 119 l 618 119 l 627 119 l 639 119 q 818 196 818 119 m 428 470 l 428 696 q 338 694 374 696 q 284 689 302 693 q 188 611 188 672 l 188 550 q 285 476 188 493 q 428 470 312 470 "},"w":{"x_min":24.421875,"x_max":1342.203125,"ha":1366,"o":"m 1342 601 q 1332 567 1342 586 l 1066 52 q 980 7 1043 7 q 895 51 918 7 l 684 447 l 470 49 q 382 5 445 5 q 293 51 316 5 l 33 567 q 24 601 24 594 q 91 648 24 648 q 167 616 149 648 l 387 191 l 601 586 q 684 633 626 633 q 765 587 739 633 l 980 191 l 1199 616 q 1274 648 1215 648 q 1342 601 1342 648 "},"\\":{"x_min":14.25,"x_max":926.453125,"ha":941,"o":"m 926 39 q 866 -5 926 -5 q 781 10 799 -5 l 37 730 q 14 776 14 753 q 74 821 14 821 q 158 806 143 821 l 903 86 q 926 39 926 64 "},"Ì":{"x_min":-14.59375,"x_max":260.078125,"ha":267,"o":"m 207 48 q 153 -5 207 -5 q 114 -4 130 -5 q 88 -2 98 -3 q 56 48 56 8 l 56 767 q 87 817 56 807 q 111 819 95 818 q 153 821 128 821 q 207 768 207 821 l 207 48 m 260 893 q 214 856 260 856 q 184 866 199 856 q 83 962 169 876 q 17 1028 41 1004 q -8 1059 -5 1052 q -14 1076 -14 1068 q 1 1104 -14 1092 q 35 1116 17 1116 q 58 1107 49 1116 l 247 919 q 260 893 260 907 "},"Ç":{"x_min":29,"x_max":964.703125,"ha":1061,"o":"m 964 751 q 911 698 964 698 l 375 698 q 180 620 180 698 l 180 211 q 396 119 180 119 l 908 119 q 963 57 963 119 q 908 -5 963 -5 l 396 -5 q 247 3 292 -5 q 143 39 197 12 q 58 106 82 71 q 29 208 29 145 l 29 619 q 100 752 29 697 q 245 813 160 797 q 298 818 267 816 q 372 821 329 821 l 911 821 q 964 751 964 821 m 636 -45 q 506 -211 636 -211 l 384 -211 q 331 -148 331 -211 q 384 -88 331 -88 l 452 -88 q 492 -54 484 -88 q 494 -24 493 -39 q 497 5 495 -9 q 566 38 509 38 q 636 -14 636 38 l 636 -45 "},"C":{"x_min":32,"x_max":967.703125,"ha":1034,"o":"m 967 751 q 914 698 967 698 l 378 698 q 183 620 183 698 l 183 211 q 399 119 183 119 l 911 119 q 966 57 966 119 q 911 -5 966 -5 l 399 -5 q 250 3 295 -5 q 146 39 200 12 q 61 106 85 71 q 32 208 32 145 l 32 619 q 103 752 32 697 q 248 813 163 797 q 301 818 270 816 q 375 821 332 821 l 914 821 q 967 751 967 821 "},"!":{"x_min":43.40625,"x_max":229.921875,"ha":273,"o":"m 213 212 q 181 164 213 173 q 115 160 167 160 q 62 212 62 160 l 62 772 q 115 826 62 826 q 181 822 167 826 q 213 772 213 812 l 213 212 m 229 68 q 200 12 229 32 q 136 -5 174 -5 q 43 68 43 -5 q 73 123 43 104 q 136 141 101 141 q 199 123 171 141 q 229 68 229 103 "},"ç":{"x_min":33,"x_max":964.09375,"ha":1038,"o":"m 964 48 q 897 -5 964 -5 l 367 -5 q 148 24 215 -5 q 33 191 33 70 l 33 447 q 338 645 33 645 l 905 645 q 960 584 960 645 q 905 524 960 524 l 348 524 q 176 451 176 524 l 176 197 q 372 115 176 115 l 910 115 q 964 48 964 115 m 661 -65 q 531 -231 661 -231 l 409 -231 q 356 -168 356 -231 q 409 -108 356 -108 l 477 -108 q 517 -74 509 -108 q 519 -44 518 -59 q 522 -14 520 -29 q 591 18 534 18 q 661 -34 661 18 l 661 -65 "},"È":{"x_min":36,"x_max":967.3125,"ha":1003,"o":"m 967 407 q 911 342 967 342 l 186 342 l 186 206 q 379 119 186 119 l 911 119 q 963 65 963 119 q 911 -5 963 -5 l 372 -5 q 156 37 254 -5 q 36 201 36 91 l 36 610 q 75 717 36 669 q 385 821 162 821 l 532 821 q 585 751 585 821 q 532 698 585 698 l 511 698 l 497 698 l 490 698 q 482 699 482 698 q 452 700 465 699 q 432 700 440 700 q 185 610 185 700 l 185 466 l 911 466 q 967 407 967 466 m 595 893 q 549 856 595 856 q 519 866 534 856 q 418 962 504 876 q 352 1028 376 1004 q 326 1059 329 1052 q 320 1076 320 1068 q 336 1104 320 1092 q 370 1116 352 1116 q 393 1107 384 1116 l 582 919 q 595 893 595 907 "},"X":{"x_min":13.5625,"x_max":1055.3125,"ha":1069,"o":"m 1055 43 q 1022 3 1055 17 q 967 -9 990 -9 q 911 7 930 -9 l 535 324 l 155 7 q 93 -6 138 -6 q 13 41 13 -6 q 40 88 13 65 l 427 415 l 53 728 q 27 775 27 750 q 66 819 27 812 q 133 821 76 821 q 167 809 153 821 l 535 502 l 900 808 q 979 821 915 821 q 1040 775 1040 821 q 1013 728 1040 750 l 641 415 l 1026 89 q 1055 43 1055 64 "},"ô":{"x_min":44,"x_max":931,"ha":966,"o":"m 931 196 q 821 34 931 85 q 613 -5 743 -5 l 375 -5 q 162 34 257 -5 q 44 196 44 87 l 44 436 q 161 601 44 545 q 374 645 247 645 l 613 645 q 931 437 931 645 l 931 196 m 786 196 l 786 446 q 609 524 786 524 l 376 524 q 260 507 311 524 q 187 435 187 484 l 187 196 q 261 129 187 150 q 377 115 311 115 l 610 115 q 716 131 666 115 q 786 196 786 153 m 741 708 q 694 669 741 669 q 647 689 670 669 q 631 705 640 696 q 608 727 621 714 q 572 761 598 737 q 504 825 547 785 q 418 741 456 776 q 352 682 380 705 q 317 670 336 670 q 268 709 268 670 q 279 731 268 720 l 459 913 q 504 933 479 933 q 549 913 529 933 l 730 732 q 741 708 741 721 "},"}":{"x_min":36.0625,"x_max":400.28125,"ha":436,"o":"m 400 406 q 362 359 400 381 q 325 335 325 339 l 325 -15 q 237 -102 325 -81 q 96 -113 194 -113 q 46 -60 46 -113 q 96 -6 46 -6 l 168 -6 l 169 333 q 202 407 169 378 q 169 481 169 438 l 168 817 l 96 817 q 36 872 36 817 q 96 929 36 929 q 237 918 200 929 q 325 829 325 897 l 325 481 q 362 454 325 477 q 400 406 400 431 "},"â":{"x_min":42,"x_max":991,"ha":1030,"o":"m 991 190 q 697 -5 991 -5 l 347 -5 q 152 36 234 -5 q 42 183 42 89 l 42 266 q 147 418 42 367 q 343 458 225 458 l 850 458 q 656 526 838 526 q 638 525 648 526 q 613 525 627 525 q 607 524 613 524 l 601 524 l 590 524 l 573 524 q 520 591 520 524 q 573 645 520 645 q 835 621 744 645 q 991 445 991 577 l 991 190 m 851 224 q 850 247 851 233 q 850 281 850 262 q 848 314 849 300 q 848 338 848 328 l 339 338 q 246 321 294 338 q 185 266 185 300 l 185 184 q 248 129 185 148 q 343 115 289 115 l 699 115 q 809 130 779 115 q 851 224 851 151 m 893 713 q 846 674 893 674 q 799 694 822 674 q 783 710 792 701 q 760 732 773 719 q 724 766 750 742 q 656 830 699 790 q 570 746 608 781 q 504 687 532 710 q 469 675 488 675 q 420 714 420 675 q 431 736 420 725 l 611 918 q 656 938 631 938 q 701 918 681 938 l 882 737 q 893 713 893 726 "},"ø":{"x_min":50,"x_max":938,"ha":966,"o":"m 305 121 q 384 115 341 115 l 617 115 q 723 131 672 115 q 793 197 793 152 l 793 447 q 778 484 793 469 l 305 121 m 629 524 l 383 524 q 266 507 317 524 q 193 435 193 483 l 193 196 q 194 188 193 188 l 629 524 m 938 437 l 938 196 q 828 34 938 85 q 620 -5 749 -5 l 381 -5 q 135 34 210 -5 q 50 196 50 80 l 50 436 q 167 601 50 545 q 381 645 253 645 l 620 645 q 838 619 772 645 q 938 437 938 575 "},"Ä":{"x_min":6.640625,"x_max":1173.171875,"ha":1211,"o":"m 1173 51 q 1152 0 1173 20 q 1099 -22 1131 -22 q 1029 18 1056 -22 l 895 213 l 260 213 l 127 18 q 80 -14 105 -14 q 32 2 55 -14 q 6 43 6 19 q 10 57 6 51 l 486 785 q 587 830 515 830 q 657 800 640 830 q 660 794 659 798 q 665 785 662 790 l 1170 71 q 1173 51 1173 66 m 807 337 l 579 674 l 349 337 l 807 337 m 778 1058 q 772 1032 778 1043 q 756 1013 766 1021 q 733 1001 746 1005 q 706 997 720 997 q 656 1012 678 997 q 633 1058 633 1029 q 656 1103 633 1086 q 706 1120 677 1120 q 733 1115 720 1120 q 756 1103 746 1111 q 772 1083 766 1094 q 778 1058 778 1072 m 542 1058 q 520 1013 542 1030 q 470 997 499 997 q 420 1012 442 997 q 397 1058 397 1029 q 420 1103 397 1086 q 470 1120 441 1120 q 497 1115 484 1120 q 520 1103 510 1111 q 536 1083 530 1094 q 542 1058 542 1072 "},"ř":{"x_min":5.703125,"x_max":478.421875,"ha":482,"o":"m 452 577 q 388 524 452 524 q 363 525 379 524 q 337 526 346 526 q 173 443 173 526 l 173 48 q 143 -1 173 9 q 80 -5 130 -5 q 30 49 30 -5 l 30 443 q 160 616 30 571 q 398 645 240 645 q 452 577 452 645 m 5 881 q 52 921 5 921 q 99 900 76 921 q 115 884 106 893 q 137 862 125 875 q 173 828 148 852 q 242 764 199 804 q 327 848 289 813 q 394 907 365 884 q 428 920 409 920 q 478 880 478 920 q 467 858 478 869 l 287 676 q 242 657 267 657 q 197 676 217 657 l 16 857 q 5 881 5 868 "},"N":{"x_min":56,"x_max":1078,"ha":1133,"o":"m 1078 83 q 995 -11 1078 -11 q 909 29 957 -11 l 207 626 l 207 48 q 174 -2 207 8 q 148 -4 164 -3 q 109 -5 132 -5 q 56 48 56 -5 l 56 737 q 133 827 56 827 q 233 783 182 827 l 927 192 l 927 767 q 959 817 927 806 q 985 819 968 818 q 1024 821 1001 821 q 1078 768 1078 821 l 1078 83 "},"—":{"x_min":108.515625,"x_max":933.90625,"ha":1077,"o":"m 153 297 q 108 339 108 297 q 153 385 108 385 l 891 385 q 933 341 933 385 q 891 297 933 297 l 153 297 "},"2":{"x_min":30,"x_max":1086,"ha":1116,"o":"m 1086 618 q 1057 458 1086 506 q 730 342 987 342 l 387 342 q 179 264 179 342 l 179 119 l 1030 119 q 1085 57 1085 119 q 1030 -5 1085 -5 l 82 -5 q 30 48 30 -5 l 30 262 q 223 448 30 401 q 301 461 260 457 q 391 466 343 466 l 724 466 q 850 479 780 466 q 935 547 935 499 l 935 618 q 783 692 935 675 q 586 698 728 698 q 540 718 553 698 q 533 768 533 732 q 586 821 533 821 q 768 818 701 821 q 865 811 836 816 q 1013 751 954 796 q 1086 618 1086 696 "},"ü":{"x_min":38,"x_max":947,"ha":1000,"o":"m 947 188 q 531 -7 947 -7 q 502 -6 520 -7 q 459 -6 483 -6 q 453 -5 458 -5 l 447 -5 l 436 -5 l 417 -5 l 386 -5 q 38 188 38 -5 l 38 591 q 90 645 38 645 q 152 640 143 645 q 181 591 181 629 l 181 188 q 386 115 181 115 l 600 115 q 802 186 802 115 l 802 591 q 831 640 802 629 q 893 645 839 645 q 947 591 947 645 l 947 188 m 694 864 q 688 838 694 849 q 672 819 682 827 q 649 807 662 811 q 622 803 636 803 q 572 818 594 803 q 549 864 549 835 q 572 909 549 892 q 622 926 593 926 q 649 921 636 926 q 672 909 662 917 q 688 889 682 900 q 694 864 694 878 m 458 864 q 436 819 458 836 q 386 803 415 803 q 336 818 358 803 q 313 864 313 835 q 336 909 313 892 q 386 926 357 926 q 413 921 400 926 q 436 909 426 917 q 452 889 446 900 q 458 864 458 878 "},"Ó":{"x_min":46,"x_max":1045,"ha":1089,"o":"m 1045 216 q 662 -5 1045 -5 l 427 -5 q 182 34 272 -5 q 46 216 46 89 l 46 597 q 427 821 46 821 l 662 821 q 913 789 840 821 q 1045 597 1045 738 l 1045 216 m 894 220 l 894 593 q 665 698 894 698 l 427 698 q 197 593 197 698 l 197 220 q 427 119 197 119 l 666 119 q 894 220 894 119 m 676 1085 q 577 972 676 1071 q 507 903 532 927 q 478 876 483 879 q 446 866 462 866 q 401 903 401 866 q 413 929 401 917 l 602 1117 q 625 1126 611 1126 q 660 1114 644 1126 q 676 1085 676 1102 "},"˜":{"x_min":136.328125,"x_max":688.390625,"ha":772,"o":"m 688 790 q 676 749 688 757 q 634 744 666 744 l 189 744 q 143 752 150 744 q 136 798 136 761 q 189 845 136 845 l 634 845 q 680 836 672 845 q 688 790 688 826 "},"ˇ":{"x_min":158.703125,"x_max":631.421875,"ha":806,"o":"m 158 881 q 205 921 158 921 q 252 900 229 921 q 268 884 259 893 q 290 862 278 875 q 326 828 301 852 q 395 764 352 804 q 480 848 442 813 q 547 907 518 884 q 581 920 562 920 q 631 880 631 920 q 620 858 631 869 l 440 676 q 395 657 420 657 q 350 676 370 657 l 169 857 q 158 881 158 868 "},"Ÿ":{"x_min":7.328125,"x_max":1020.03125,"ha":1046,"o":"m 1020 776 q 995 730 1020 753 l 589 339 l 588 47 q 556 -1 586 7 q 491 -5 547 -5 q 438 47 438 -5 l 438 340 l 30 730 q 7 776 7 752 q 67 821 7 821 q 151 806 136 821 l 512 459 l 875 806 q 958 821 890 821 q 1020 776 1020 821 m 717 1058 q 711 1032 717 1043 q 695 1013 705 1021 q 672 1001 685 1005 q 645 997 659 997 q 595 1012 617 997 q 572 1058 572 1029 q 595 1103 572 1086 q 645 1120 616 1120 q 672 1115 659 1120 q 695 1103 685 1111 q 711 1083 705 1094 q 717 1058 717 1072 m 481 1058 q 459 1013 481 1030 q 409 997 438 997 q 359 1012 381 997 q 336 1058 336 1029 q 359 1103 336 1086 q 409 1120 380 1120 q 436 1115 423 1120 q 459 1103 449 1111 q 475 1083 469 1094 q 481 1058 481 1072 "},"€":{"x_min":72.359375,"x_max":1041.140625,"ha":1082,"o":"m 270 461 l 270 345 l 676 345 q 718 298 718 345 q 676 255 718 255 l 270 255 l 270 208 q 494 98 270 98 l 995 98 q 1041 49 1041 98 q 995 0 1041 0 l 478 0 q 149 205 149 0 l 149 255 l 115 255 q 72 300 72 255 q 115 345 72 345 l 149 345 l 149 461 l 115 461 q 72 508 72 461 q 115 551 72 551 l 149 551 l 149 626 q 470 820 149 820 l 959 820 q 1003 771 1003 820 q 959 722 1003 722 l 474 722 q 270 626 270 722 l 270 551 l 792 551 q 839 504 839 551 q 792 461 839 461 l 270 461 "},"ß":{"x_min":78,"x_max":1100,"ha":1143,"o":"m 1100 212 q 978 34 1100 89 q 748 -5 882 -5 l 501 -5 q 448 48 448 -5 q 501 119 448 119 l 748 119 q 949 206 949 119 l 949 284 q 755 353 949 353 l 501 353 q 448 424 448 353 q 501 477 448 477 l 755 477 q 949 551 949 477 l 949 630 q 867 693 949 679 q 822 697 852 696 q 749 699 793 699 l 341 699 q 264 682 295 699 q 223 620 223 660 l 223 40 q 193 -8 223 2 q 130 -13 184 -13 q 78 41 78 -13 l 78 619 q 145 771 78 716 q 307 823 207 823 l 748 823 q 975 793 888 823 q 1100 624 1100 746 q 1094 509 1100 536 q 1029 418 1080 453 q 1094 326 1081 380 q 1100 212 1100 300 "},"s":{"x_min":29,"x_max":854,"ha":882,"o":"m 854 180 q 570 -5 854 -5 l 84 -5 q 32 48 32 -5 q 84 115 32 115 l 570 115 q 705 180 705 115 l 705 205 q 582 264 705 264 l 350 264 q 29 442 29 264 l 29 478 q 190 630 29 596 q 285 641 222 637 q 443 645 348 645 q 496 577 496 645 q 443 524 496 524 l 340 524 q 243 522 259 524 q 172 478 172 512 l 172 444 q 350 386 172 386 l 588 386 q 854 210 854 386 l 854 180 "},"?":{"x_min":31.15625,"x_max":731,"ha":764,"o":"m 731 505 q 606 353 731 404 q 393 315 506 315 l 234 315 q 198 270 198 315 q 198 259 198 266 q 199 244 198 251 q 200 229 200 237 q 201 218 201 222 q 173 166 201 177 q 111 161 153 161 q 55 238 55 161 q 55 251 55 243 q 57 269 56 259 q 57 288 57 280 q 58 301 58 296 q 296 436 58 436 q 317 435 304 436 q 345 435 329 435 q 353 434 346 434 l 360 434 l 374 434 l 393 434 q 510 448 456 434 q 589 509 589 468 l 589 601 q 363 701 589 701 q 309 767 309 701 q 337 816 309 805 q 397 821 346 821 q 616 777 530 821 q 731 603 731 721 l 731 505 m 218 73 q 188 17 218 37 q 125 0 162 0 q 62 17 87 0 q 31 73 31 36 q 61 128 31 108 q 124 146 87 146 q 188 128 162 146 q 218 73 218 109 "},"Ű":{"x_min":55,"x_max":1074,"ha":1128,"o":"m 1074 227 q 622 -8 1074 -8 q 588 -7 609 -8 q 540 -7 567 -7 q 493 -5 513 -6 q 459 -5 472 -5 q 77 114 141 -5 q 55 227 55 155 l 55 768 q 107 821 55 821 q 172 817 158 821 q 206 768 206 806 l 206 237 q 301 132 206 159 q 369 122 330 125 q 461 119 408 119 l 668 119 q 828 131 787 119 q 924 237 924 156 l 924 768 q 955 817 924 807 q 1021 821 968 821 q 1074 768 1074 821 l 1074 227 m 404 897 q 374 884 391 884 q 337 922 337 884 q 348 950 337 938 l 521 1134 q 553 1148 535 1148 q 592 1110 592 1148 q 581 1080 592 1093 l 404 897 m 602 896 q 573 884 592 884 q 535 922 535 884 q 546 950 535 938 l 720 1134 q 752 1148 735 1148 q 790 1110 790 1148 q 779 1080 790 1093 l 602 896 "},"c":{"x_min":27,"x_max":958.09375,"ha":983,"o":"m 958 48 q 891 -5 958 -5 l 361 -5 q 142 24 209 -5 q 27 191 27 70 l 27 447 q 332 645 27 645 l 899 645 q 954 584 954 645 q 899 524 954 524 l 342 524 q 170 451 170 524 l 170 197 q 366 115 170 115 l 904 115 q 958 48 958 115 "},"¶":{"x_min":28,"x_max":789,"ha":933,"o":"m 147 637 q 257 544 147 544 l 666 544 l 666 722 l 251 722 q 147 637 147 722 m 727 -5 q 666 46 666 -5 l 666 446 l 489 446 l 489 46 q 426 -3 489 -3 q 366 46 366 -3 l 366 446 l 274 446 q 28 637 28 446 q 267 820 28 820 l 748 820 q 789 779 789 820 l 789 46 q 727 -5 789 -5 "},"•":{"x_min":189.90625,"x_max":788.765625,"ha":981,"o":"m 788 196 q 719 131 788 153 q 613 115 669 115 l 380 115 q 264 129 314 115 q 189 196 189 150 l 189 435 q 263 507 189 484 q 379 524 314 524 l 612 524 q 788 446 788 524 l 788 196 "},"(":{"x_min":43,"x_max":339.140625,"ha":382,"o":"m 339 775 q 301 719 339 745 l 231 672 q 194 583 194 637 l 194 233 q 301 96 194 165 q 338 43 338 73 q 277 -5 338 -5 q 213 1 228 -5 q 43 233 43 71 l 43 583 q 215 817 43 751 q 286 821 226 821 q 339 775 339 821 "},"­":{"x_min":46.125,"x_max":598.1875,"ha":645,"o":"m 598 336 q 544 283 598 283 l 99 283 q 51 295 60 283 q 46 344 46 305 q 99 398 46 398 l 544 398 q 591 385 582 398 q 598 336 598 376 "},":":{"x_min":33,"x_max":220,"ha":254,"o":"m 220 390 q 126 316 220 316 q 62 334 88 316 q 33 390 33 354 q 63 445 33 425 q 126 463 89 463 q 189 445 161 463 q 220 390 220 425 m 220 73 q 190 17 220 37 q 126 0 164 0 q 63 17 89 0 q 33 73 33 36 q 62 128 33 108 q 126 146 90 146 q 190 128 164 146 q 220 73 220 109 "},"Û":{"x_min":44,"x_max":1063,"ha":1114,"o":"m 1063 227 q 611 -8 1063 -8 q 577 -7 598 -8 q 529 -7 556 -7 q 482 -5 502 -6 q 448 -5 461 -5 q 66 114 130 -5 q 44 227 44 155 l 44 768 q 96 821 44 821 q 161 817 147 821 q 195 768 195 806 l 195 237 q 290 132 195 159 q 358 122 319 125 q 450 119 397 119 l 657 119 q 817 131 776 119 q 913 237 913 156 l 913 768 q 944 817 913 807 q 1010 821 957 821 q 1063 768 1063 821 l 1063 227 m 788 895 q 741 856 788 856 q 694 876 717 856 q 678 892 687 883 q 655 914 668 901 q 619 948 645 924 q 551 1012 594 972 q 465 928 503 963 q 399 869 427 892 q 364 857 383 857 q 315 896 315 857 q 326 918 315 907 l 506 1100 q 551 1120 526 1120 q 596 1100 576 1120 l 777 919 q 788 895 788 908 "},"V":{"x_min":8.140625,"x_max":1197.734375,"ha":1205,"o":"m 1197 778 q 1182 738 1197 761 l 693 43 q 603 -7 657 -7 q 513 42 548 -7 l 23 738 q 8 778 8 761 q 82 823 8 823 q 155 798 138 823 l 603 159 l 1049 798 q 1123 823 1066 823 q 1197 778 1197 823 "},"ś":{"x_min":29,"x_max":854,"ha":882,"o":"m 854 180 q 570 -5 854 -5 l 84 -5 q 32 48 32 -5 q 84 115 32 115 l 570 115 q 705 180 705 115 l 705 205 q 582 264 705 264 l 350 264 q 29 442 29 264 l 29 478 q 190 630 29 596 q 285 641 222 637 q 443 645 348 645 q 496 577 496 645 q 443 524 496 524 l 340 524 q 243 522 259 524 q 172 478 172 512 l 172 444 q 350 386 172 386 l 588 386 q 854 210 854 386 l 854 180 m 485 859 q 386 746 485 845 q 316 677 341 701 q 287 650 292 653 q 255 640 271 640 q 210 677 210 640 q 222 703 210 691 l 411 891 q 434 900 420 900 q 469 888 453 900 q 485 859 485 876 "}," ":{"x_min":0,"x_max":0,"ha":395},"@":{"x_min":34,"x_max":849,"ha":883,"o":"m 849 335 q 716 211 849 211 l 430 211 q 341 221 382 211 q 270 251 300 232 q 222 295 239 270 q 205 350 205 320 l 205 381 q 220 439 205 413 q 265 484 236 465 q 335 512 294 502 q 426 523 375 523 l 555 523 q 455 573 546 573 q 443 572 451 573 q 428 572 436 572 q 412 572 420 572 q 401 572 405 572 q 361 621 361 572 q 411 661 361 661 q 528 652 481 661 q 604 626 575 644 q 646 580 633 608 q 659 512 659 552 l 659 335 q 695 299 659 299 q 738 334 738 299 l 738 675 q 723 700 738 689 q 689 719 709 711 q 647 731 668 727 q 610 735 625 735 l 295 735 q 145 672 145 735 l 145 188 q 323 127 145 127 l 394 127 q 435 82 435 127 q 394 37 435 37 l 294 37 q 197 46 244 37 q 114 75 150 56 q 55 122 77 94 q 34 188 34 150 l 34 673 q 51 738 34 710 q 103 786 69 767 q 184 816 137 806 q 293 827 232 827 l 610 827 q 709 816 665 827 q 784 785 754 805 q 832 736 815 765 q 849 671 849 707 l 849 335 m 555 300 l 555 434 l 424 434 q 391 430 411 434 q 354 421 372 427 q 323 404 336 414 q 311 381 311 394 l 311 351 q 320 330 311 339 q 346 314 329 321 q 383 303 362 307 q 427 300 404 300 l 555 300 "},"¾":{"x_min":30.484375,"x_max":2088,"ha":2198,"o":"m 704 0 q 667 -17 686 -17 q 614 38 614 -17 q 630 77 614 61 l 1346 817 q 1391 834 1364 834 q 1450 779 1450 834 q 1430 737 1450 756 l 704 0 m 2088 43 q 2027 -10 2088 -10 q 1968 43 1968 -10 l 1968 144 l 1458 144 q 1411 158 1426 144 q 1397 207 1397 173 l 1397 549 q 1455 601 1397 601 q 1514 549 1514 601 l 1514 260 l 1968 260 l 1968 549 q 2027 601 1968 601 q 2088 549 2088 601 l 2088 43 m 689 636 q 617 527 689 564 q 689 410 689 489 l 689 377 q 442 215 689 215 l 84 215 q 30 264 30 215 q 84 317 30 317 l 457 317 q 569 373 569 317 l 569 429 q 543 459 569 445 l 544 458 q 461 470 498 470 l 84 470 q 30 522 30 470 q 84 576 30 576 l 461 576 q 500 579 481 576 q 535 586 519 582 l 535 586 q 569 620 569 599 l 569 674 q 459 717 569 717 l 349 717 q 295 768 295 717 q 349 820 295 820 l 436 820 q 689 670 689 820 l 689 636 "},"i":{"x_min":42.046875,"x_max":227.890625,"ha":270,"o":"m 227 733 q 198 678 227 698 q 134 660 172 660 q 71 678 97 660 q 42 733 42 698 q 71 789 42 769 q 134 807 97 807 q 198 789 172 807 q 227 733 227 769 m 208 47 q 154 -5 208 -5 q 93 -1 102 -5 q 66 47 66 9 l 66 593 q 119 646 66 646 q 179 641 170 646 q 208 593 208 631 l 208 47 "},"m":{"x_min":48,"x_max":1279,"ha":1327,"o":"m 1279 48 q 1226 -5 1279 -5 q 1164 -1 1173 -5 q 1135 47 1135 9 l 1135 448 q 952 526 1135 526 l 933 526 l 924 526 q 916 525 916 526 q 799 512 828 521 q 736 430 736 493 l 736 47 q 706 -1 736 9 q 645 -5 698 -5 q 592 48 592 -5 l 592 431 q 550 509 592 489 q 457 524 522 524 l 440 524 l 428 524 l 422 524 q 416 525 416 524 q 392 525 402 525 q 375 526 382 526 q 191 447 191 526 l 191 47 q 162 -1 191 9 q 100 -5 153 -5 q 48 48 48 -5 l 48 432 q 360 645 48 645 q 460 643 421 645 q 518 640 499 642 q 668 589 599 630 q 818 639 729 627 q 978 645 866 645 q 1279 432 1279 645 l 1279 48 "},"ż":{"x_min":27.125,"x_max":933.234375,"ha":960,"o":"m 933 55 q 877 -5 933 -5 l 125 -5 q 59 14 89 -5 q 27 72 27 37 q 65 131 27 106 l 799 605 q 852 623 827 623 q 898 604 881 623 q 916 557 916 585 q 897 519 916 531 l 280 117 l 877 114 q 933 55 933 114 m 551 826 q 529 782 551 799 q 479 766 508 766 q 429 781 451 766 q 406 826 406 798 q 429 871 406 854 q 479 888 450 888 q 506 883 493 888 q 529 871 519 879 q 545 851 539 863 q 551 826 551 840 "},"ő":{"x_min":47,"x_max":934,"ha":981,"o":"m 934 196 q 824 34 934 85 q 616 -5 746 -5 l 378 -5 q 165 34 260 -5 q 47 196 47 87 l 47 436 q 164 601 47 545 q 377 645 250 645 l 616 645 q 934 437 934 645 l 934 196 m 789 196 l 789 446 q 612 524 789 524 l 379 524 q 263 507 314 524 q 190 435 190 484 l 190 196 q 264 129 190 150 q 380 115 314 115 l 613 115 q 719 131 669 115 q 789 196 789 153 m 330 724 q 300 711 317 711 q 263 749 263 711 q 274 777 263 765 l 447 961 q 479 975 461 975 q 518 937 518 975 q 507 907 518 920 l 330 724 m 528 723 q 499 711 518 711 q 461 749 461 711 q 472 777 461 765 l 646 961 q 678 975 661 975 q 716 937 716 975 q 705 907 716 920 l 528 723 "},"ž":{"x_min":27.125,"x_max":933.234375,"ha":960,"o":"m 933 55 q 877 -5 933 -5 l 125 -5 q 59 14 89 -5 q 27 72 27 37 q 65 131 27 106 l 799 605 q 852 623 827 623 q 898 604 881 623 q 916 557 916 585 q 897 519 916 531 l 280 117 l 877 114 q 933 55 933 114 m 380 881 q 427 921 380 921 q 474 900 451 921 q 490 884 481 893 q 512 862 500 875 q 548 828 523 852 q 617 764 574 804 q 702 848 664 813 q 769 907 740 884 q 803 920 784 920 q 853 880 853 920 q 842 858 853 869 l 662 676 q 617 657 642 657 q 572 676 592 657 l 391 857 q 380 881 380 868 "},"á":{"x_min":42,"x_max":991,"ha":1030,"o":"m 991 190 q 697 -5 991 -5 l 347 -5 q 152 36 234 -5 q 42 183 42 89 l 42 266 q 147 418 42 367 q 343 458 225 458 l 850 458 q 656 526 838 526 q 638 525 648 526 q 613 525 627 525 q 607 524 613 524 l 601 524 l 590 524 l 573 524 q 520 591 520 524 q 573 645 520 645 q 835 621 744 645 q 991 445 991 577 l 991 190 m 851 224 q 850 247 851 233 q 850 281 850 262 q 848 314 849 300 q 848 338 848 328 l 339 338 q 246 321 294 338 q 185 266 185 300 l 185 184 q 248 129 185 148 q 343 115 289 115 l 699 115 q 809 130 779 115 q 851 224 851 151 m 757 898 q 658 785 757 884 q 588 716 613 740 q 559 689 564 692 q 527 679 543 679 q 482 716 482 679 q 494 742 482 730 l 683 930 q 706 939 692 939 q 741 927 725 939 q 757 898 757 915 "},"Ě":{"x_min":29,"x_max":960.3125,"ha":990,"o":"m 960 407 q 904 342 960 342 l 179 342 l 179 206 q 372 119 179 119 l 904 119 q 956 65 956 119 q 904 -5 956 -5 l 365 -5 q 149 37 247 -5 q 29 201 29 91 l 29 610 q 68 717 29 669 q 378 821 155 821 l 525 821 q 578 751 578 821 q 525 698 578 698 l 504 698 l 490 698 l 483 698 q 475 699 475 698 q 445 700 458 699 q 425 700 433 700 q 178 610 178 700 l 178 466 l 904 466 q 960 407 960 466 m 258 1054 q 305 1094 258 1094 q 352 1073 329 1094 q 368 1057 359 1066 q 390 1035 378 1048 q 426 1001 401 1025 q 495 937 452 977 q 580 1021 542 986 q 647 1080 618 1057 q 681 1093 662 1093 q 731 1053 731 1093 q 720 1031 731 1042 l 540 849 q 495 830 520 830 q 450 849 470 830 l 269 1030 q 258 1054 258 1041 "},"K":{"x_min":29,"x_max":949.171875,"ha":978,"o":"m 949 44 q 888 -5 949 -5 q 810 1 820 -5 l 176 336 l 176 48 q 122 -5 176 -5 q 59 -1 68 -5 q 29 47 29 9 l 29 768 q 59 817 29 807 q 122 821 71 821 q 176 768 176 821 l 176 490 l 786 815 q 868 821 804 821 q 928 772 928 821 q 892 721 928 740 l 308 415 l 913 96 q 949 44 949 76 "},"7":{"x_min":30.515625,"x_max":1083.796875,"ha":1114,"o":"m 1083 759 q 1055 695 1083 728 l 481 14 q 398 -5 463 -5 q 343 45 343 -5 q 357 83 343 65 l 878 698 l 83 698 q 30 751 30 698 q 83 821 30 821 l 989 821 q 1083 759 1083 821 "},"¨":{"x_min":234.671875,"x_max":615.828125,"ha":766,"o":"m 615 827 q 609 801 615 812 q 593 782 603 790 q 570 770 583 774 q 543 766 557 766 q 493 781 515 766 q 470 827 470 798 q 493 872 470 855 q 543 889 514 889 q 570 884 557 889 q 593 872 583 880 q 609 852 603 863 q 615 827 615 841 m 379 827 q 357 782 379 799 q 307 766 336 766 q 257 781 279 766 q 234 827 234 798 q 257 872 234 855 q 307 889 278 889 q 334 884 321 889 q 357 872 347 880 q 373 852 367 863 q 379 827 379 841 "},"Y":{"x_min":10.328125,"x_max":1023.03125,"ha":1032,"o":"m 1023 776 q 998 730 1023 753 l 592 339 l 591 47 q 559 -1 589 7 q 494 -5 550 -5 q 441 47 441 -5 l 441 340 l 33 730 q 10 776 10 752 q 70 821 10 821 q 154 806 139 821 l 515 459 l 878 806 q 961 821 893 821 q 1023 776 1023 821 "},"E":{"x_min":29,"x_max":960.3125,"ha":990,"o":"m 960 407 q 904 342 960 342 l 179 342 l 179 206 q 372 119 179 119 l 904 119 q 956 65 956 119 q 904 -5 956 -5 l 365 -5 q 149 37 247 -5 q 29 201 29 91 l 29 610 q 68 717 29 669 q 378 821 155 821 l 525 821 q 578 751 578 821 q 525 698 578 698 l 504 698 l 490 698 l 483 698 q 475 699 475 698 q 445 700 458 699 q 425 700 433 700 q 178 610 178 700 l 178 466 l 904 466 q 960 407 960 466 "},"Ô":{"x_min":46,"x_max":1045,"ha":1089,"o":"m 1045 216 q 662 -5 1045 -5 l 427 -5 q 182 34 272 -5 q 46 216 46 89 l 46 597 q 427 821 46 821 l 662 821 q 913 789 840 821 q 1045 597 1045 738 l 1045 216 m 894 220 l 894 593 q 665 698 894 698 l 427 698 q 197 593 197 698 l 197 220 q 427 119 197 119 l 666 119 q 894 220 894 119 m 789 896 q 742 857 789 857 q 695 877 718 857 q 679 893 688 884 q 656 915 669 902 q 620 949 646 925 q 552 1013 595 973 q 466 929 504 964 q 400 870 428 893 q 365 858 384 858 q 316 897 316 858 q 327 919 316 908 l 507 1101 q 552 1121 527 1121 q 597 1101 577 1121 l 778 920 q 789 896 789 909 "},"‹":{"x_min":24.421875,"x_max":376.40625,"ha":385,"o":"m 288 591 q 321 604 305 604 q 342 599 332 604 q 359 586 352 594 q 370 568 366 578 q 375 547 375 557 q 350 503 375 522 l 160 360 l 350 220 q 370 198 364 211 q 376 174 376 186 q 372 153 376 164 q 360 135 367 143 q 342 122 352 127 q 321 118 332 118 q 304 120 314 118 q 288 130 295 123 l 48 317 q 24 361 24 335 q 48 405 24 388 l 288 591 "},"Ï":{"x_min":-16.328125,"x_max":364.828125,"ha":336,"o":"m 239 48 q 185 -5 239 -5 q 146 -4 162 -5 q 120 -2 130 -3 q 88 48 88 8 l 88 767 q 119 817 88 807 q 143 819 127 818 q 185 821 160 821 q 239 768 239 821 l 239 48 m 364 1065 q 358 1039 364 1050 q 342 1020 352 1028 q 319 1008 332 1012 q 292 1004 306 1004 q 242 1019 264 1004 q 219 1065 219 1036 q 242 1110 219 1093 q 292 1127 263 1127 q 319 1122 306 1127 q 342 1110 332 1118 q 358 1090 352 1101 q 364 1065 364 1079 m 128 1065 q 106 1020 128 1037 q 56 1004 85 1004 q 6 1019 28 1004 q -16 1065 -16 1036 q 6 1110 -16 1093 q 56 1127 27 1127 q 83 1122 70 1127 q 106 1110 96 1118 q 122 1090 116 1101 q 128 1065 128 1079 "},"ì":{"x_min":-39.59375,"x_max":235.078125,"ha":256,"o":"m 210 48 q 156 -5 210 -5 q 95 -1 104 -5 q 68 47 68 9 l 68 540 q 121 593 68 593 q 181 588 172 593 q 210 539 210 577 l 210 48 m 235 718 q 189 681 235 681 q 159 691 174 681 q 58 787 144 701 q -7 853 16 829 q -33 884 -30 877 q -39 901 -39 893 q -23 929 -39 917 q 10 941 -7 941 q 33 932 24 941 l 222 744 q 235 718 235 732 "},"|":{"x_min":54,"x_max":205,"ha":258,"o":"m 205 -132 q 151 -186 205 -186 q 112 -184 128 -186 q 86 -182 96 -183 q 54 -131 54 -171 l 54 839 q 86 888 54 878 q 151 892 99 892 q 205 839 205 892 l 205 -132 "},"§":{"x_min":60,"x_max":726,"ha":799,"o":"m 292 504 q 180 445 180 504 l 180 401 q 311 336 180 336 l 504 336 q 607 395 607 336 l 607 436 q 491 504 607 504 l 292 504 m 726 395 q 644 284 726 320 q 726 172 726 244 q 485 0 726 0 l 109 0 q 60 46 60 0 q 109 94 60 94 l 504 94 q 607 172 607 94 q 495 240 607 240 l 331 240 q 68 399 68 240 l 68 445 q 148 552 68 516 q 68 665 68 591 q 319 819 68 819 l 347 819 q 399 770 399 819 q 347 724 399 724 l 292 724 q 180 665 180 724 q 308 599 180 599 l 478 599 q 726 436 726 599 l 726 395 "},"q":{"x_min":48,"x_max":947,"ha":995,"o":"m 947 -131 q 917 -180 947 -169 q 855 -185 908 -185 q 803 -132 803 -185 l 803 0 l 358 0 q 48 201 48 0 l 48 453 q 391 645 48 645 l 621 645 q 947 452 947 645 l 947 -131 m 803 119 l 803 448 q 614 525 803 525 l 390 525 q 191 451 191 525 l 191 199 q 355 119 191 119 l 803 119 "},"b":{"x_min":39,"x_max":948,"ha":987,"o":"m 948 199 q 609 -5 948 -5 l 389 -5 q 168 37 269 -5 q 39 196 39 92 l 39 766 q 67 815 39 805 q 129 820 76 820 q 182 766 182 820 l 182 640 l 609 640 q 948 438 948 640 l 948 199 m 806 204 l 806 435 q 612 520 806 520 l 182 520 l 182 197 q 274 130 182 152 q 340 119 307 123 q 406 115 373 115 l 610 115 q 688 117 657 115 q 733 122 718 119 q 806 204 806 139 "},"®":{"x_min":88,"x_max":834,"ha":904,"o":"m 576 631 q 502 672 576 672 l 332 672 l 332 541 l 511 541 q 576 578 576 541 l 576 631 m 636 578 q 505 484 636 484 l 442 484 l 624 360 q 639 339 639 355 q 629 318 639 328 q 605 308 620 308 q 589 312 604 308 l 332 487 l 332 344 q 298 311 332 311 q 268 344 268 311 l 268 711 q 284 730 268 730 l 493 730 q 636 630 636 730 l 636 578 m 770 514 q 678 746 770 647 q 459 842 587 842 q 239 746 329 842 q 149 514 149 652 q 239 282 149 376 q 459 186 331 186 q 678 282 587 186 q 770 514 770 378 m 834 514 q 724 235 834 351 q 459 122 613 122 q 196 235 305 122 q 88 514 88 351 q 196 790 88 675 q 459 907 304 907 q 723 790 613 907 q 834 514 834 677 "},"L":{"x_min":29,"x_max":966.734375,"ha":1014,"o":"m 966 48 q 913 -5 966 -5 l 430 -5 q 172 24 265 -5 q 29 212 29 74 l 29 768 q 82 821 29 821 q 147 817 133 821 q 180 768 180 807 l 180 212 q 284 127 180 148 q 439 119 317 119 l 913 119 q 966 48 966 119 "},"ď":{"x_min":54,"x_max":966,"ha":1020,"o":"m 966 195 q 836 36 966 90 q 616 -5 745 -5 l 398 -5 q 56 178 66 -5 q 54 264 54 211 q 58 437 54 370 q 396 640 70 640 l 823 640 l 823 766 q 875 820 823 820 q 936 815 913 820 q 966 766 966 804 l 966 195 m 823 197 l 823 520 l 392 520 q 201 435 201 520 l 201 204 q 273 123 201 141 q 396 115 304 115 l 602 115 q 823 197 823 115 m 273 881 q 320 921 273 921 q 367 900 344 921 q 383 884 374 893 q 405 862 393 875 q 441 828 416 852 q 510 764 467 804 q 595 848 557 813 q 662 907 633 884 q 696 920 677 920 q 746 880 746 920 q 735 858 746 869 l 555 676 q 510 657 535 657 q 465 676 485 657 l 284 857 q 273 881 273 868 "}," ":{"x_min":0,"x_max":0,"ha":395},"À":{"x_min":6.640625,"x_max":1173.171875,"ha":1211,"o":"m 1173 51 q 1152 0 1173 20 q 1099 -22 1131 -22 q 1029 18 1056 -22 l 895 213 l 260 213 l 127 18 q 80 -14 105 -14 q 32 2 55 -14 q 6 43 6 19 q 10 57 6 51 l 486 785 q 587 830 515 830 q 657 800 640 830 q 660 794 659 798 q 665 785 662 790 l 1170 71 q 1173 51 1173 66 m 807 337 l 579 674 l 349 337 l 807 337 m 654 896 q 608 859 654 859 q 578 869 593 859 q 477 965 563 879 q 411 1031 435 1007 q 385 1062 388 1055 q 379 1079 379 1071 q 395 1107 379 1095 q 429 1119 411 1119 q 452 1110 443 1119 l 641 922 q 654 896 654 910 "},"+":{"x_min":22.078125,"x_max":513.984375,"ha":536,"o":"m 513 406 q 458 346 513 346 l 339 346 l 339 268 q 285 215 339 215 q 217 224 232 215 q 194 281 194 237 l 194 294 l 194 303 q 194 313 194 312 q 195 323 195 314 l 195 332 l 195 346 l 78 346 q 22 406 22 346 q 78 467 22 467 l 193 467 l 193 540 q 246 593 193 593 q 332 570 320 593 q 339 467 339 558 l 458 467 q 513 406 513 467 "},"½":{"x_min":98,"x_max":1517,"ha":1595,"o":"m 218 263 q 157 211 218 211 q 98 263 98 211 l 98 770 q 158 823 98 823 q 218 770 218 823 l 218 263 m 297 -1 q 260 -17 279 -17 q 207 38 207 -17 q 223 77 207 61 l 940 817 q 984 834 957 834 q 1043 779 1043 834 q 1024 737 1043 757 l 297 -1 m 1517 408 q 1294 248 1517 248 l 1104 248 q 986 199 986 248 l 986 103 l 1468 103 q 1517 51 1517 103 q 1468 0 1517 0 l 912 0 q 867 46 867 0 l 867 199 q 1120 352 867 352 l 1304 352 q 1396 398 1396 352 l 1396 457 q 1311 503 1396 503 l 1168 503 q 1115 555 1115 503 q 1168 605 1115 605 l 1301 605 q 1517 445 1517 605 l 1517 408 "},"Ë":{"x_min":36,"x_max":967.3125,"ha":1003,"o":"m 967 407 q 911 342 967 342 l 186 342 l 186 206 q 379 119 186 119 l 911 119 q 963 65 963 119 q 911 -5 963 -5 l 372 -5 q 156 37 254 -5 q 36 201 36 91 l 36 610 q 75 717 36 669 q 385 821 162 821 l 532 821 q 585 751 585 821 q 532 698 585 698 l 511 698 l 497 698 l 490 698 q 482 699 482 698 q 452 700 465 699 q 432 700 440 700 q 185 610 185 700 l 185 466 l 911 466 q 967 407 967 466 m 615 1064 q 609 1038 615 1049 q 593 1019 603 1027 q 570 1007 583 1011 q 543 1003 557 1003 q 493 1018 515 1003 q 470 1064 470 1035 q 493 1109 470 1092 q 543 1126 514 1126 q 570 1121 557 1126 q 593 1109 583 1117 q 609 1089 603 1100 q 615 1064 615 1078 m 379 1064 q 357 1019 379 1036 q 307 1003 336 1003 q 257 1018 279 1003 q 234 1064 234 1035 q 257 1109 234 1092 q 307 1126 278 1126 q 334 1121 321 1126 q 357 1109 347 1117 q 373 1089 367 1100 q 379 1064 379 1078 "},"'":{"x_min":42.046875,"x_max":226.53125,"ha":269,"o":"m 226 764 q 226 757 226 760 q 225 749 225 753 l 191 552 q 155 511 186 518 q 96 509 151 509 q 42 555 42 509 q 42 562 42 559 q 43 570 42 566 l 75 766 q 111 808 81 799 q 172 811 116 811 q 226 764 226 811 "},"Š":{"x_min":27,"x_max":965,"ha":992,"o":"m 965 199 q 943 95 965 133 q 603 -5 887 -5 l 81 -5 q 29 48 29 -5 q 37 99 29 85 q 81 119 48 119 l 603 119 q 814 196 814 119 l 814 268 q 609 350 814 344 l 359 359 q 309 361 341 359 q 230 366 277 362 q 90 419 149 375 q 27 548 27 468 l 27 610 q 188 801 27 755 q 468 821 264 821 q 521 751 521 821 q 489 701 521 711 q 425 699 485 699 q 178 611 178 699 l 178 553 q 270 483 178 500 q 321 478 287 480 q 403 477 355 477 l 605 477 q 833 439 749 477 q 965 273 965 385 l 965 199 m 258 1054 q 305 1094 258 1094 q 352 1073 329 1094 q 368 1057 359 1066 q 390 1035 378 1048 q 426 1001 401 1025 q 495 937 452 977 q 580 1021 542 986 q 647 1080 618 1057 q 681 1093 662 1093 q 731 1053 731 1093 q 720 1031 731 1042 l 540 849 q 495 830 520 830 q 450 849 470 830 l 269 1030 q 258 1054 258 1041 "},"˛":{"x_min":52.21875,"x_max":356.75,"ha":269,"o":"m 52 -41 q 121 11 52 11 q 191 -21 179 11 q 193 -51 192 -36 q 196 -81 194 -66 q 236 -115 204 -115 l 303 -115 q 356 -175 356 -115 q 303 -238 356 -238 l 181 -238 q 52 -72 52 -238 l 52 -41 "},"ð":{"x_min":54,"x_max":966,"ha":1020,"o":"m 966 195 q 836 36 966 90 q 616 -5 745 -5 l 398 -5 q 56 178 66 -5 q 54 264 54 211 q 58 437 54 370 q 396 640 70 640 l 823 640 l 823 708 l 700 708 q 647 769 647 708 q 700 823 647 823 l 876 823 q 966 766 966 823 l 966 195 m 823 197 l 823 520 l 392 520 q 201 435 201 520 l 201 204 q 273 123 201 141 q 396 115 304 115 l 602 115 q 823 197 823 115 "},"ş":{"x_min":29,"x_max":854,"ha":882,"o":"m 854 180 q 570 -5 854 -5 l 84 -5 q 32 48 32 -5 q 84 115 32 115 l 570 115 q 705 180 705 115 l 705 205 q 582 264 705 264 l 350 264 q 29 442 29 264 l 29 478 q 190 630 29 596 q 285 641 222 637 q 443 645 348 645 q 496 577 496 645 q 443 524 496 524 l 340 524 q 243 522 259 524 q 172 478 172 512 l 172 444 q 350 386 172 386 l 588 386 q 854 210 854 386 l 854 180 m 593 -72 q 463 -238 593 -238 l 341 -238 q 288 -175 288 -238 q 341 -115 288 -115 l 409 -115 q 449 -81 441 -115 q 451 -51 450 -66 q 454 -21 452 -36 q 523 11 466 11 q 593 -41 593 11 l 593 -72 "},"ı":{"x_min":72,"x_max":214,"ha":256,"o":"m 214 48 q 160 -5 214 -5 q 99 -1 108 -5 q 72 47 72 9 l 72 540 q 125 593 72 593 q 185 588 176 593 q 214 539 214 577 l 214 48 "},"Ć":{"x_min":32,"x_max":967.703125,"ha":1034,"o":"m 967 751 q 914 698 967 698 l 378 698 q 183 620 183 698 l 183 211 q 399 119 183 119 l 911 119 q 966 57 966 119 q 911 -5 966 -5 l 399 -5 q 250 3 295 -5 q 146 39 200 12 q 61 106 85 71 q 32 208 32 145 l 32 619 q 103 752 32 697 q 248 813 163 797 q 301 818 270 816 q 375 821 332 821 l 914 821 q 967 751 967 821 m 654 1055 q 555 942 654 1041 q 485 873 510 897 q 456 846 461 849 q 424 836 440 836 q 379 873 379 836 q 391 899 379 887 l 580 1087 q 603 1096 589 1096 q 638 1084 622 1096 q 654 1055 654 1072 "},"ä":{"x_min":42,"x_max":991,"ha":1030,"o":"m 991 190 q 697 -5 991 -5 l 347 -5 q 152 36 234 -5 q 42 183 42 89 l 42 266 q 147 418 42 367 q 343 458 225 458 l 850 458 q 656 526 838 526 q 638 525 648 526 q 613 525 627 525 q 607 524 613 524 l 601 524 l 590 524 l 573 524 q 520 591 520 524 q 573 645 520 645 q 835 621 744 645 q 991 445 991 577 l 991 190 m 851 224 q 850 247 851 233 q 850 281 850 262 q 848 314 849 300 q 848 338 848 328 l 339 338 q 246 321 294 338 q 185 266 185 300 l 185 184 q 248 129 185 148 q 343 115 289 115 l 699 115 q 809 130 779 115 q 851 224 851 151 m 830 861 q 824 835 830 846 q 808 816 818 824 q 785 804 798 808 q 758 800 772 800 q 708 815 730 800 q 685 861 685 832 q 708 906 685 889 q 758 923 729 923 q 785 918 772 923 q 808 906 798 914 q 824 886 818 897 q 830 861 830 875 m 594 861 q 572 816 594 833 q 522 800 551 800 q 472 815 494 800 q 449 861 449 832 q 472 906 449 889 q 522 923 493 923 q 549 918 536 923 q 572 906 562 914 q 588 886 582 897 q 594 861 594 875 "},"£":{"x_min":98,"x_max":983.328125,"ha":1003,"o":"m 221 357 l 221 97 l 936 97 q 983 49 983 97 q 936 -1 983 -1 l 160 0 q 98 55 98 0 l 98 614 q 418 820 98 820 l 528 820 q 576 773 576 820 q 528 722 576 722 l 429 722 q 221 615 221 722 l 221 454 l 675 454 q 722 407 722 454 q 675 357 722 357 l 221 357 "},"ů":{"x_min":52,"x_max":961,"ha":1013,"o":"m 961 188 q 545 -7 961 -7 q 516 -6 534 -7 q 473 -6 497 -6 q 467 -5 472 -5 l 461 -5 l 450 -5 l 431 -5 l 400 -5 q 52 188 52 -5 l 52 591 q 104 645 52 645 q 166 640 157 645 q 195 591 195 629 l 195 188 q 400 115 195 115 l 614 115 q 816 186 816 115 l 816 591 q 845 640 816 629 q 907 645 853 645 q 961 591 961 645 l 961 188 m 636 821 q 597 734 636 767 q 505 701 560 701 q 415 734 452 701 q 376 821 376 768 q 414 908 376 874 q 505 941 451 941 q 596 908 558 941 q 636 821 636 873 m 588 821 q 564 876 588 854 q 505 897 538 897 q 447 876 473 897 q 423 821 423 854 q 447 766 423 787 q 505 744 473 744 q 564 766 538 744 q 588 821 588 787 "},"W":{"x_min":15.59375,"x_max":1572.125,"ha":1587,"o":"m 1572 771 q 1566 745 1572 758 l 1239 56 q 1146 -5 1209 -5 q 1057 51 1083 -5 l 796 608 l 527 50 q 439 1 503 1 q 346 53 370 1 l 21 745 q 15 768 15 758 q 43 811 15 795 q 96 825 67 825 q 161 791 145 825 l 439 200 l 704 767 q 794 829 732 829 q 844 811 816 829 q 881 773 871 794 l 1150 200 l 1424 790 q 1494 824 1439 824 q 1544 811 1522 824 q 1572 771 1572 796 "},"v":{"x_min":16.953125,"x_max":1077.703125,"ha":1095,"o":"m 1077 601 q 1058 558 1077 582 l 602 7 q 548 -20 578 -20 q 495 6 517 -20 l 36 558 q 16 601 16 582 q 94 648 16 648 q 160 625 141 648 l 548 152 l 935 625 q 1000 648 953 648 q 1077 601 1077 648 "},">":{"x_min":23.734375,"x_max":680.25,"ha":704,"o":"m 680 405 q 663 379 680 386 l 112 150 q 69 140 82 140 q 23 179 23 140 q 44 211 23 203 l 518 405 l 44 598 q 26 614 29 604 q 25 639 25 615 q 65 669 25 669 q 112 661 92 669 q 263 598 174 635 q 477 509 352 560 l 603 457 q 622 449 611 454 q 649 438 634 444 q 680 405 680 424 "},"û":{"x_min":38,"x_max":947,"ha":1000,"o":"m 947 188 q 531 -7 947 -7 q 502 -6 520 -7 q 459 -6 483 -6 q 453 -5 458 -5 l 447 -5 l 436 -5 l 417 -5 l 386 -5 q 38 188 38 -5 l 38 591 q 90 645 38 645 q 152 640 143 645 q 181 591 181 629 l 181 188 q 386 115 181 115 l 600 115 q 802 186 802 115 l 802 591 q 831 640 802 629 q 893 645 839 645 q 947 591 947 645 l 947 188 m 732 712 q 685 673 732 673 q 638 693 661 673 q 622 709 631 700 q 599 731 612 718 q 563 765 589 741 q 495 829 538 789 q 409 745 447 780 q 343 686 371 709 q 308 674 327 674 q 259 713 259 674 q 270 735 259 724 l 450 917 q 495 937 470 937 q 540 917 520 937 l 721 736 q 732 712 732 725 "},"Ź":{"x_min":23.734375,"x_max":957.65625,"ha":981,"o":"m 957 57 q 902 -5 957 -5 l 147 -5 q 65 13 99 -5 q 23 79 23 35 q 47 128 23 108 l 814 779 q 885 809 847 809 q 912 804 900 809 q 934 792 925 800 q 950 772 944 783 q 956 748 956 761 q 925 691 956 716 l 248 119 l 902 119 q 957 57 957 119 m 627 1055 q 528 942 627 1041 q 458 873 483 897 q 429 846 434 849 q 397 836 413 836 q 352 873 352 836 q 364 899 352 887 l 553 1087 q 576 1096 562 1096 q 611 1084 595 1096 q 627 1055 627 1072 "},"Ð":{"x_min":-24.21875,"x_max":1135,"ha":1182,"o":"m 106 467 l 106 768 q 158 821 106 821 l 799 821 q 1135 610 1135 821 l 1135 218 q 1017 41 1135 101 q 796 -5 926 -5 l 158 -5 q 106 48 106 -5 l 106 353 l 13 353 q -22 369 -16 353 q -24 414 -24 376 q 13 467 -24 467 l 106 467 m 368 405 q 330 353 368 353 l 257 353 l 257 119 l 792 119 q 913 137 861 119 q 986 218 986 163 l 986 609 q 912 681 986 658 q 795 698 859 698 l 257 698 l 257 467 l 330 467 q 366 449 360 467 q 368 405 368 443 "},"ˉ":{"x_min":136.328125,"x_max":688.390625,"ha":772,"o":"m 688 790 q 676 749 688 757 q 634 744 666 744 l 189 744 q 143 752 150 744 q 136 798 136 761 q 189 845 136 845 l 634 845 q 680 836 672 845 q 688 790 688 826 "},"Ĺ":{"x_min":29,"x_max":966.734375,"ha":1014,"o":"m 966 48 q 913 -5 966 -5 l 430 -5 q 172 24 265 -5 q 29 212 29 74 l 29 768 q 82 821 29 821 q 147 817 133 821 q 180 768 180 807 l 180 212 q 284 127 180 148 q 439 119 317 119 l 913 119 q 966 48 966 119 m 644 1055 q 545 942 644 1041 q 475 873 500 897 q 446 846 451 849 q 414 836 430 836 q 369 873 369 836 q 381 899 369 887 l 570 1087 q 593 1096 579 1096 q 628 1084 612 1096 q 644 1055 644 1072 "},"r":{"x_min":30,"x_max":452.421875,"ha":482,"o":"m 452 577 q 388 524 452 524 q 363 525 379 524 q 337 526 346 526 q 173 443 173 526 l 173 48 q 143 -1 173 9 q 80 -5 130 -5 q 30 49 30 -5 l 30 443 q 160 616 30 571 q 398 645 240 645 q 452 577 452 645 "},"Č":{"x_min":32,"x_max":967.703125,"ha":1034,"o":"m 967 751 q 914 698 967 698 l 378 698 q 183 620 183 698 l 183 211 q 399 119 183 119 l 911 119 q 966 57 966 119 q 911 -5 966 -5 l 399 -5 q 250 3 295 -5 q 146 39 200 12 q 61 106 85 71 q 32 208 32 145 l 32 619 q 103 752 32 697 q 248 813 163 797 q 301 818 270 816 q 375 821 332 821 l 914 821 q 967 751 967 821 m 279 1054 q 326 1094 279 1094 q 373 1073 350 1094 q 389 1057 380 1066 q 411 1035 399 1048 q 447 1001 422 1025 q 516 937 473 977 q 601 1021 563 986 q 668 1080 639 1057 q 702 1093 683 1093 q 752 1053 752 1093 q 741 1031 752 1042 l 561 849 q 516 830 541 830 q 471 849 491 830 l 290 1030 q 279 1054 279 1041 "},"x":{"x_min":19.671875,"x_max":934.59375,"ha":954,"o":"m 934 41 q 897 -3 934 5 q 830 -5 891 -5 q 799 5 814 -5 l 479 239 l 156 5 q 80 -5 141 -5 q 19 42 19 -5 q 50 91 19 70 l 368 319 l 53 548 q 24 597 24 569 q 63 643 24 634 q 130 645 71 645 q 162 634 147 645 l 480 401 l 791 634 q 866 645 804 645 q 927 598 927 645 q 897 548 927 569 l 590 321 l 904 91 q 934 41 934 69 "},"è":{"x_min":25,"x_max":925,"ha":969,"o":"m 925 309 q 884 250 925 250 l 173 250 l 173 245 q 281 126 173 152 q 350 118 305 121 q 465 115 395 115 q 518 48 518 115 q 465 -5 518 -5 q 347 -4 393 -5 q 278 -1 301 -3 q 104 54 160 11 q 25 199 25 116 l 25 439 q 147 606 25 552 q 368 646 230 646 l 635 646 q 822 608 748 646 q 925 465 925 561 l 925 309 m 785 374 l 785 453 q 493 527 785 527 q 258 514 322 527 q 168 448 168 497 l 168 374 l 785 374 m 578 712 q 532 675 578 675 q 502 685 517 675 q 401 781 487 695 q 335 847 359 823 q 309 878 312 871 q 303 895 303 887 q 319 923 303 911 q 353 935 335 935 q 376 926 367 935 l 565 738 q 578 712 578 726 "},"Ø":{"x_min":56,"x_max":1055,"ha":1119,"o":"m 212 198 l 734 703 q 675 705 706 705 l 437 705 q 207 600 207 705 l 207 226 q 212 198 207 218 m 882 653 l 342 131 q 386 126 363 128 q 436 125 409 125 l 676 125 q 904 226 904 125 l 904 600 q 882 653 904 632 m 1055 603 l 1055 222 q 672 1 1055 1 l 437 1 q 56 222 56 1 l 56 603 q 437 827 56 827 l 672 827 q 935 792 851 827 q 1055 603 1055 741 "},"Ń":{"x_min":56,"x_max":1078,"ha":1133,"o":"m 1078 83 q 995 -11 1078 -11 q 909 29 957 -11 l 207 626 l 207 48 q 174 -2 207 8 q 148 -4 164 -3 q 109 -5 132 -5 q 56 48 56 -5 l 56 737 q 133 827 56 827 q 233 783 182 827 l 927 192 l 927 767 q 959 817 927 806 q 985 819 968 818 q 1024 821 1001 821 q 1078 768 1078 821 l 1078 83 m 704 1055 q 605 942 704 1041 q 535 873 560 897 q 506 846 511 849 q 474 836 490 836 q 429 873 429 836 q 441 899 429 887 l 630 1087 q 653 1096 639 1096 q 688 1084 672 1096 q 704 1055 704 1072 "},"h":{"x_min":64,"x_max":963,"ha":998,"o":"m 963 47 q 934 -1 963 9 q 872 -5 925 -5 q 820 48 820 -5 l 820 431 q 748 510 820 491 q 627 520 700 520 l 207 520 l 207 48 q 154 -5 207 -5 q 92 -1 101 -5 q 64 47 64 9 l 64 768 q 92 817 64 807 q 154 821 103 821 q 207 767 207 821 l 207 639 l 593 639 q 834 611 765 639 q 963 432 963 565 l 963 47 "},".":{"x_min":32.5625,"x_max":219.75,"ha":252,"o":"m 219 69 q 189 13 219 34 q 126 -5 162 -5 q 62 12 88 -5 q 32 69 32 33 q 62 124 32 104 q 125 142 90 142 q 189 124 161 142 q 219 69 219 103 "},"f":{"x_min":43,"x_max":457.25,"ha":482,"o":"m 457 586 q 404 520 457 520 l 186 520 l 186 48 q 133 -5 186 -5 q 71 -1 80 -5 q 43 47 43 9 l 43 629 q 363 821 43 821 q 432 815 418 821 q 457 754 457 802 q 404 702 457 702 q 278 698 308 702 q 188 639 188 684 l 404 639 q 457 586 457 639 "},"“":{"x_min":19.671875,"x_max":395.40625,"ha":425,"o":"m 204 831 q 149 785 204 785 q 111 786 126 785 q 89 789 96 787 q 52 830 57 797 l 21 1026 q 20 1034 20 1030 q 19 1041 19 1037 q 73 1088 19 1088 q 133 1085 128 1088 q 169 1043 164 1077 l 202 846 q 203 838 203 842 q 204 831 204 835 m 395 831 q 341 785 395 785 q 302 786 317 785 q 280 789 287 787 q 244 830 248 797 l 212 1026 q 211 1034 211 1030 q 210 1041 210 1037 q 265 1088 210 1088 q 324 1085 320 1088 q 360 1043 355 1077 l 394 846 q 395 838 394 842 q 395 831 395 835 "},"A":{"x_min":17.640625,"x_max":1184.171875,"ha":1202,"o":"m 1184 51 q 1163 0 1184 20 q 1110 -22 1142 -22 q 1040 18 1067 -22 l 906 213 l 271 213 l 138 18 q 91 -14 116 -14 q 43 2 66 -14 q 17 43 17 19 q 21 57 17 51 l 497 785 q 598 830 526 830 q 668 800 651 830 q 671 794 670 798 q 676 785 673 790 l 1181 71 q 1184 51 1184 66 m 818 337 l 590 674 l 360 337 l 818 337 "},"O":{"x_min":52,"x_max":1051,"ha":1103,"o":"m 1051 216 q 668 -5 1051 -5 l 433 -5 q 188 34 278 -5 q 52 216 52 89 l 52 597 q 433 821 52 821 l 668 821 q 919 789 846 821 q 1051 597 1051 738 l 1051 216 m 900 220 l 900 593 q 671 698 900 698 l 433 698 q 203 593 203 698 l 203 220 q 433 119 203 119 l 672 119 q 900 220 900 119 "},"‘":{"x_min":31.875,"x_max":216.359375,"ha":252,"o":"m 216 829 q 162 783 216 783 q 101 785 106 783 q 65 827 70 791 l 33 1023 q 32 1031 32 1027 q 31 1038 31 1034 q 86 1085 31 1085 q 145 1082 140 1085 q 181 1040 177 1073 l 215 844 q 216 836 215 840 q 216 829 216 833 "},"Đ":{"x_min":-24.21875,"x_max":1135,"ha":1182,"o":"m 106 467 l 106 768 q 158 821 106 821 l 799 821 q 1135 610 1135 821 l 1135 218 q 1017 41 1135 101 q 796 -5 926 -5 l 158 -5 q 106 48 106 -5 l 106 353 l 13 353 q -22 369 -16 353 q -24 414 -24 376 q 13 467 -24 467 l 106 467 m 368 405 q 330 353 368 353 l 257 353 l 257 119 l 792 119 q 913 137 861 119 q 986 218 986 163 l 986 609 q 912 681 986 658 q 795 698 859 698 l 257 698 l 257 467 l 330 467 q 366 449 360 467 q 368 405 368 443 "},"3":{"x_min":49.53125,"x_max":1108,"ha":1158,"o":"m 1108 212 q 986 34 1108 89 q 756 -5 890 -5 l 102 -5 q 49 48 49 -5 q 102 119 49 119 l 756 119 q 957 206 957 119 l 957 284 q 763 353 957 353 l 102 353 q 49 424 49 353 q 102 477 49 477 l 763 477 q 957 551 957 477 l 957 630 q 875 693 957 679 q 830 697 860 696 q 756 699 800 699 l 620 699 q 565 760 565 699 q 620 821 565 821 l 648 821 l 666 821 l 676 821 l 682 821 q 687 821 687 821 q 727 822 710 822 q 755 823 744 823 q 983 793 895 823 q 1108 624 1108 746 q 1101 509 1108 536 q 1037 418 1088 453 q 1101 326 1088 380 q 1108 212 1108 306 "},"9":{"x_min":52,"x_max":1081,"ha":1133,"o":"m 1081 207 q 894 16 1081 62 q 593 -5 792 -5 q 548 14 560 -5 q 540 65 540 28 q 593 119 540 119 q 614 118 602 119 q 644 118 627 118 q 652 117 645 117 l 660 117 l 673 117 l 695 117 q 932 218 932 117 l 932 274 l 419 274 q 52 485 52 274 l 52 615 q 172 779 52 724 q 388 821 255 821 l 724 821 q 956 778 858 821 q 1081 599 1081 721 l 1081 207 m 932 397 l 932 599 q 848 679 932 653 q 718 698 790 698 l 390 698 q 275 683 318 698 q 202 613 202 661 l 202 487 q 286 412 202 435 q 416 397 349 397 l 932 397 "},"l":{"x_min":54,"x_max":197,"ha":251,"o":"m 197 48 q 144 -5 197 -5 q 83 -1 91 -5 q 54 47 54 9 l 54 768 q 106 821 54 821 q 168 817 156 821 q 197 768 197 807 l 197 48 "},"4":{"x_min":47,"x_max":1166,"ha":1213,"o":"m 1166 47 q 1097 -7 1166 -7 q 1030 -3 1042 -7 q 996 47 996 7 l 996 205 l 123 205 q 47 291 47 205 l 47 767 q 81 818 47 807 q 148 822 93 822 q 217 767 217 822 l 217 347 l 996 347 l 996 767 q 1030 818 996 807 q 1097 822 1042 822 q 1166 767 1166 822 l 1166 47 "},"Ü":{"x_min":44,"x_max":1063,"ha":1114,"o":"m 1063 227 q 611 -8 1063 -8 q 577 -7 598 -8 q 529 -7 556 -7 q 482 -5 502 -6 q 448 -5 461 -5 q 66 114 130 -5 q 44 227 44 155 l 44 768 q 96 821 44 821 q 161 817 147 821 q 195 768 195 806 l 195 237 q 290 132 195 159 q 358 122 319 125 q 450 119 397 119 l 657 119 q 817 131 776 119 q 913 237 913 156 l 913 768 q 944 817 913 807 q 1010 821 957 821 q 1063 768 1063 821 l 1063 227 m 745 1062 q 739 1036 745 1047 q 723 1017 733 1025 q 700 1005 713 1009 q 673 1001 687 1001 q 623 1016 645 1001 q 600 1062 600 1033 q 623 1107 600 1090 q 673 1124 644 1124 q 700 1119 687 1124 q 723 1107 713 1115 q 739 1087 733 1098 q 745 1062 745 1076 m 509 1062 q 487 1017 509 1034 q 437 1001 466 1001 q 387 1016 409 1001 q 364 1062 364 1033 q 387 1107 364 1090 q 437 1124 408 1124 q 464 1119 451 1124 q 487 1107 477 1115 q 503 1087 497 1098 q 509 1062 509 1076 "},"à":{"x_min":42,"x_max":991,"ha":1030,"o":"m 991 190 q 697 -5 991 -5 l 347 -5 q 152 36 234 -5 q 42 183 42 89 l 42 266 q 147 418 42 367 q 343 458 225 458 l 850 458 q 656 526 838 526 q 638 525 648 526 q 613 525 627 525 q 607 524 613 524 l 601 524 l 590 524 l 573 524 q 520 591 520 524 q 573 645 520 645 q 835 621 744 645 q 991 445 991 577 l 991 190 m 851 224 q 850 247 851 233 q 850 281 850 262 q 848 314 849 300 q 848 338 848 328 l 339 338 q 246 321 294 338 q 185 266 185 300 l 185 184 q 248 129 185 148 q 343 115 289 115 l 699 115 q 809 130 779 115 q 851 224 851 151 m 642 715 q 596 678 642 678 q 566 688 581 678 q 465 784 551 698 q 399 850 423 826 q 373 881 376 874 q 367 898 367 890 q 383 926 367 914 q 417 938 399 938 q 440 929 431 938 l 629 741 q 642 715 642 729 "},"Ś":{"x_min":27,"x_max":965,"ha":992,"o":"m 965 199 q 943 95 965 133 q 603 -5 887 -5 l 81 -5 q 29 48 29 -5 q 37 99 29 85 q 81 119 48 119 l 603 119 q 814 196 814 119 l 814 268 q 609 350 814 344 l 359 359 q 309 361 341 359 q 230 366 277 362 q 90 419 149 375 q 27 548 27 468 l 27 610 q 188 801 27 755 q 468 821 264 821 q 521 751 521 821 q 489 701 521 711 q 425 699 485 699 q 178 611 178 699 l 178 553 q 270 483 178 500 q 321 478 287 480 q 403 477 355 477 l 605 477 q 833 439 749 477 q 965 273 965 385 l 965 199 m 526 1055 q 427 942 526 1041 q 357 873 382 897 q 328 846 333 849 q 296 836 312 836 q 251 873 251 836 q 263 899 251 887 l 452 1087 q 475 1096 461 1096 q 510 1084 494 1096 q 526 1055 526 1072 "},"Ť":{"x_min":9.765625,"x_max":932.265625,"ha":943,"o":"m 932 751 q 879 698 932 698 l 545 698 l 545 48 q 492 -5 545 -5 q 426 -1 439 -5 q 395 48 395 8 l 395 698 l 63 698 q 9 751 9 698 q 17 801 9 788 q 63 821 28 821 l 879 821 q 932 751 932 821 m 234 1054 q 281 1094 234 1094 q 328 1073 305 1094 q 344 1057 335 1066 q 366 1035 354 1048 q 402 1001 377 1025 q 471 937 428 977 q 556 1021 518 986 q 623 1080 594 1057 q 657 1093 638 1093 q 707 1053 707 1093 q 696 1031 707 1042 l 516 849 q 471 830 496 830 q 426 849 446 830 l 245 1030 q 234 1054 234 1041 "},"ó":{"x_min":38,"x_max":925,"ha":966,"o":"m 925 196 q 815 34 925 85 q 607 -5 737 -5 l 369 -5 q 156 34 251 -5 q 38 196 38 87 l 38 436 q 155 601 38 545 q 368 645 241 645 l 607 645 q 925 437 925 645 l 925 196 m 780 196 l 780 446 q 603 524 780 524 l 370 524 q 254 507 305 524 q 181 435 181 484 l 181 196 q 255 129 181 150 q 371 115 305 115 l 604 115 q 710 131 660 115 q 780 196 780 153 m 648 887 q 549 774 648 873 q 479 705 504 729 q 450 678 455 681 q 418 668 434 668 q 373 705 373 668 q 385 731 373 719 l 574 919 q 597 928 583 928 q 632 916 616 928 q 648 887 648 904 "}}}
